<?xml version="1.0" encoding="UTF-8"?>
<svg id="Layer_2" data-name="Layer 2" xmlns="http://www.w3.org/2000/svg" viewBox="0 0 857.18 851.44">
  <defs>
    <style>
      .cls-1 {
        fill: #fafaff;
      }
    </style>
  </defs>
  <g id="Medium">
    <g>
      <path class="cls-1" d="m823.5,595.42c22.35-52.85,33.68-108.98,33.68-166.83s-11.33-113.98-33.68-166.83c-21.59-51.04-52.49-96.87-91.85-136.23-39.36-39.36-85.19-70.26-136.23-91.85C542.58,11.33,486.45,0,428.59,0s-113.98,11.33-166.83,33.68c-51.04,21.59-96.87,52.49-136.23,91.85-39.36,39.36-70.26,85.19-91.85,136.23C11.33,314.61,0,370.74,0,428.59s11.33,113.98,33.68,166.83c11.59,27.41,26.09,53.67,43.09,78.03,1.19,1.71,3.06,2.83,5.13,3.08,2.08.25,4.17-.39,5.74-1.77,2.82-2.47,3.33-6.64,1.18-9.71-45.54-65.24-71.15-141.72-74.05-221.17-.08-2.12.69-4.13,2.17-5.67,1.48-1.53,3.46-2.37,5.58-2.37h49.05c4,0,7.25-3.25,7.25-7.25s-3.25-7.25-7.25-7.25H22.54c-2.13,0-4.11-.84-5.59-2.38-1.47-1.53-2.24-3.54-2.17-5.66,2.06-56.54,15.38-111.03,39.59-161.95,23.45-49.32,55.96-92.99,96.63-129.79,1.57-1.43,3.61-2.13,5.73-1.98,2.12.15,4.05,1.12,5.41,2.75l31.41,37.43c1.25,1.49,3,2.39,4.93,2.56,1.92.17,3.81-.43,5.29-1.68,3.06-2.57,3.45-7.15.89-10.21l-31.42-37.44c-1.37-1.63-2-3.69-1.77-5.8.22-2.11,1.27-4,2.94-5.3,30.06-23.44,63.12-42.6,98.26-56.93,1.97-.8,4.12-.77,6.07.09,1.95.86,3.42,2.44,4.15,4.44l16.75,46.01c.66,1.82,1.99,3.27,3.75,4.09,1.76.82,3.72.9,5.54.24,3.75-1.37,5.7-5.54,4.33-9.29l-16.76-46.04c-.73-2-.61-4.15.32-6.06.93-1.91,2.56-3.32,4.58-3.98,40.99-13.26,83.77-19.98,127.17-19.98s86.19,6.72,127.17,19.98c2.02.65,3.65,2.07,4.58,3.98.93,1.91,1.05,4.06.32,6.06l-16.76,46.04c-1.37,3.75.57,7.92,4.33,9.29,1.82.66,3.79.58,5.54-.24s3.09-2.27,3.75-4.09l16.75-46.01c.73-2,2.2-3.58,4.15-4.44,1.95-.86,4.1-.89,6.07-.09,35.14,14.33,68.2,33.49,98.26,56.93,1.67,1.31,2.72,3.19,2.94,5.3.22,2.11-.41,4.17-1.77,5.8l-31.42,37.44c-2.57,3.06-2.17,7.64.89,10.21,1.48,1.25,3.36,1.84,5.29,1.67,1.93-.17,3.68-1.08,4.92-2.56l31.41-37.43c1.37-1.63,3.29-2.61,5.41-2.75,2.14-.15,4.16.56,5.73,1.98,40.67,36.81,73.18,80.47,96.63,129.79,24.21,50.92,37.53,105.4,39.59,161.95.08,2.12-.69,4.13-2.17,5.66-1.48,1.53-3.46,2.37-5.58,2.37h-49.05c-4,0-7.25,3.25-7.25,7.25s3.25,7.25,7.25,7.25h49.05c2.12,0,4.11.84,5.58,2.37,1.48,1.53,2.25,3.54,2.17,5.67-2.98,81.77-29.9,160.09-77.84,226.52l11.1,9.73c19.09-26.27,35.18-54.77,47.85-84.71Z"/>
      <path class="cls-1" d="m224.58,161.74c1.4,1.61,3.41,2.53,5.54,2.53,1.5,0,2.95-.46,4.19-1.32l.14-.1c19.04-13.95,39.56-25.84,60.99-35.35,3.57-1.54,5.32-5.6,3.98-9.23l-20.54-56.43c-.67-1.85-2.08-3.38-3.87-4.18-1.84-.83-4.05-.85-5.91-.05-29.2,12.57-56.8,28.51-82.03,47.39l-.08.06c-1.56,1.2-2.58,3.02-2.81,4.98-.22,1.99.38,4,1.67,5.53l38.67,46.09-.11.25.19-.16Zm5.59-4.49v-.5s0,0,0,0v.5Zm59.25-43.49l.2.46-.13.06-.21-.46.13-.06Zm-3.64,9.44l.02.06-.47.17.45-.23Zm-94.36-12.16v-.5s0,0,0,0v.5Zm10.46,1.07l.22-.16c20.43-14.64,42.48-27.38,65.53-37.85l.25-.11.09.25,15.56,42.75-.21.1c-18.02,8.44-35.45,18.54-51.79,30.01l-.19.13-.15-.17-29.32-34.95Z"/>
      <path class="cls-1" d="m831.69,405.61c-2.58-46.36-13.05-91.51-31.1-134.19-20.34-48.08-49.44-91.26-86.51-128.33-2.63-2.63-5.42-5.33-8.79-8.5-1.36-1.28-3.18-1.99-5.05-1.99-.13,0-.26,0-.39.01-2.01.11-3.9,1.06-5.2,2.6l-38.64,46.05c-2.46,2.93-2.27,7.18.43,9.89l.07.07c59.42,57.09,95.11,133.53,100.56,215.25.24,3.85,3.45,6.86,7.31,6.86h59.99c1.99,0,3.92-.83,5.3-2.26,1.39-1.46,2.13-3.45,2.02-5.47Zm-131.36-265.98v.5-.5s0,0,0,0Zm-.11,0v.5-.5s0,0,0,0Zm71.63,265.99l.2-.02h0l-.5.02v-.11s.49-.03.49-.03v.11h0v.02s-.2,0-.2,0Zm-.82-6.78l-.02-.23c-6.96-80.16-42.29-155.78-99.46-212.94l-.16-.16,29.45-35.1.19.19c.97.94,1.89,1.85,2.79,2.75,35.74,35.74,63.8,77.36,83.41,123.72,16.37,38.71,26.28,79.59,29.46,121.5l.02.27h-45.68Z"/>
      <path class="cls-1" d="m671.34,115.57c1.28-1.52,1.89-3.53,1.68-5.5-.22-2.01-1.27-3.86-2.89-5.08-25.23-18.88-52.83-34.82-82.03-47.39l-.07-.03c-.91-.38-1.87-.56-2.83-.56-1.01,0-2.03.21-2.96.62-1.81.8-3.24,2.33-3.91,4.19l-20.59,56.58c-1.23,3.59.51,7.57,3.96,9.06,21.47,9.53,42.02,21.43,61.06,35.38l.14.1c1.25.87,2.7,1.33,4.2,1.33,2.16,0,4.2-.96,5.6-2.63l38.66-46.08Zm-9.95.99l-.15.2.15-.2.09.07-.29.4-.1-.07.3-.4Zm-69.47-49.74l.03-.08.47.17-.03.08-.47-.17h.02s-.02,0-.02,0Zm-24.3,47.42l-.13-.06.2-.46.14.06-.21.46Zm58.22,32.99l-.19-.13c-16.33-11.46-33.75-21.56-51.79-30.01l-.21-.1,15.65-43,.25.11c23.04,10.47,45.09,23.2,65.53,37.85l.22.16-29.47,35.12Z"/>
      <path class="cls-1" d="m520.2,112.32c3.7,1.07,7.62-.92,8.93-4.54l20.58-56.55c.64-1.87.49-3.95-.42-5.71-.91-1.76-2.51-3.1-4.41-3.67-37.49-11.28-76.62-17-116.3-17s-78.82,5.73-116.35,17.02c-1.94.6-3.55,1.99-4.43,3.82-.85,1.77-.96,3.84-.29,5.69l20.53,56.4c1.04,2.9,3.8,4.85,6.86,4.85.7,0,1.39-.1,2.07-.3,29.69-8.61,60.51-12.98,91.6-12.98s61.92,4.37,91.61,12.98Zm-4.75-9.35l-.47-.17.06-.18.47.17-.06.17Zm8.75-4.59l.13-.48h.01c.06.02.12.04.18.06l-.08.26.02-.02.08-.24.1.06,1.09,1.09-1.53-.73Zm-191.41.05h-.01s0,0,0,0h-.57s.42-.43.42-.43l.44-.44v.85s-.27,0-.27,0Zm6.62-1.84l-.08-.21-15.56-42.76.26-.07c33.82-9.42,69-14.2,104.56-14.2s70.75,4.78,104.56,14.2l.26.07-.09.25-15.55,42.72-.22-.06c-28.92-7.75-58.85-11.69-88.96-11.69s-60.04,3.93-88.96,11.69l-.22.06Zm2.32,6.38h0s-.06-.17-.06-.17l.47-.18.06.17-.47.17Z"/>
      <path class="cls-1" d="m757.22,663.23c17.22-24.06,31.81-50.13,43.38-77.47,18.05-42.68,28.51-87.85,31.1-134.26.09-1.99-.65-3.95-2.02-5.39-1.38-1.44-3.31-2.26-5.3-2.26h-59.99c-3.81,0-7.02,3-7.31,6.84-3.92,58.85-23.72,115.69-57.28,164.37-2.07,3.05-1.54,7.18,1.24,9.61l45.46,39.87c1.54,1.32,3.62,1.95,5.61,1.71,2.02-.23,3.93-1.36,5.11-3.01Zm-7.08-15.17l-.16.23-.21-.19-34.41-30.18.12-.18c31.42-47.52,50.63-102.56,55.55-159.18l.02-.23h45.68l-.02.27c-3.18,41.93-13.09,82.81-29.46,121.5-10.07,23.82-22.56,46.68-37.11,67.96Z"/>
      <path class="cls-1" d="m25.49,451.57c2.58,46.37,13.05,91.51,31.1,134.18,11.57,27.35,26.17,53.43,43.42,77.53,1.19,1.63,3.11,2.74,5.12,2.96,2.01.22,4.12-.45,5.62-1.78l45.46-39.87c2.73-2.45,3.22-6.58,1.14-9.61-33.53-48.64-53.33-105.46-57.25-164.3-.24-3.85-3.45-6.86-7.31-6.86h-59.99c-1.99,0-3.92.83-5.3,2.26-1.39,1.46-2.13,3.45-2.02,5.47Zm60.66,6.77l.02.23c4.93,56.64,24.14,111.68,55.55,159.18l.12.18-.16.14-34.46,30.22-.16-.23c-14.56-21.29-27.04-44.15-37.11-67.96-16.37-38.71-26.28-79.59-29.46-121.5l-.02-.27h45.68Z"/>
      <path class="cls-1" d="m200.64,191.25c2.76-2.67,2.99-7.05.51-9.99l-38.67-46.09c-1.31-1.53-3.21-2.47-5.22-2.56-.11,0-.22,0-.32,0-1.87,0-3.69.72-5.05,1.99-3.36,3.17-6.15,5.87-8.79,8.5-37.07,37.07-66.18,80.24-86.51,128.33-18.05,42.68-28.51,87.85-31.1,134.26-.09,1.99.65,3.95,2.02,5.39,1.38,1.44,3.31,2.26,5.3,2.26h59.99c3.81,0,7.02-2.98,7.3-6.78,5.45-81.8,41.15-158.24,100.54-215.31Zm-10.54-.6l-.13.13.14-.12.04.05-.09.06-.28.27.21-.22-.24.19.09-.09-.1.07.37-.34h0Zm-.06-.07h0s-.35.35-.35.35l.35-.35Zm-28.14-45.5l.35.36-.08.07-.34-.37.07-.07Zm-69.02,261.19v-.5s0,0,0,0v.5Zm-6.71-7.66l-.02.23h-45.68l.02-.27c3.18-41.93,13.09-82.81,29.46-121.5,19.61-46.35,47.67-87.98,83.41-123.72.9-.9,1.82-1.81,2.79-2.75l.19-.19,29.45,35.1-.16.16c-57.17,57.16-92.49,132.79-99.46,212.95Z"/>
      <path class="cls-1" d="m107.16,696.49c-.13,1.29.42,2.71,1.66,4.21,2.2,2.66,4.48,5.36,6.78,8,1.25,1.44,2.54,2.21,3.81,2.29,1.15.08,2.33-.43,3.51-1.49l20.9-18.78.67.75c3.98,4.45,8.12,8.86,12.3,13.11,7.56,7.63,16.08,11.46,24.59,11.02,8.28-.4,16.32-4.89,22.65-12.64,12.82-15.75,13.09-32.61.71-45.09-6.55-6.64-12.9-13.68-18.88-20.91h0c-1.7-2.06-3.79-2.05-6.4.03l-70.27,56.3c-1.23.98-1.91,2.06-2.03,3.21Zm74.82-40.06l.67.75c2.78,3.1,5.64,6.18,8.51,9.16,7.47,7.7,7.34,16.51-.35,24.82-3.85,4.15-8.25,6.37-12.71,6.42-.05,0-.11,0-.16,0-4.41,0-8.64-2.05-12.57-6.1h0c-3.2-3.32-6.4-6.76-9.5-10.22l-.67-.74,26.79-24.07Z"/>
      <path class="cls-1" d="m227.64,799.61c3.13,1.74,6.37,3.47,9.62,5.16,1.67.86,3.1,1.03,4.14.49,1.29-.67,1.75-2.31,1.92-3.56,4.27-31.46,10.79-62.64,19.39-92.68,1.03-3.59-.22-4.95-1.59-5.8-3.83-2.41-7.69-4.96-11.46-7.57-1.89-1.31-3.68-1.07-5.99.8-24.42,19.79-50.68,37.91-78.05,53.85h0c-1.07.61-2.36,1.64-2.48,3.08-.1,1.21.67,2.55,2.17,3.8,2.88,2.37,5.82,4.73,8.74,7.01,2.51,1.96,4.87,2.06,7.4.32,5.28-3.64,10.57-7.39,15.7-11.15l.59-.43.59.43c9.63,7.02,19.69,13.67,29.9,19.75l.63.38-.17.71c-1.45,6.18-2.85,12.51-4.14,18.8-.61,3,.37,5.1,3.09,6.61Zm-16.39-55.24l-1.1-.78,1.07-.83c10.54-8.17,20.94-16.77,30.93-25.55l.57-.5,1.83,1.21-.24.73c-4.12,12.61-7.93,25.56-11.33,38.5l-.34,1.3-1.15-.71c-6.85-4.21-13.67-8.71-20.25-13.37Z"/>
      <path class="cls-1" d="m289.54,822.2l26.76-74.63.94.34c6.31,2.25,12.79,4.34,19.26,6.21,1.05.3,1.95.25,2.7-.17.99-.56,1.77-1.8,2.26-3.6l1.55-5.62c1.31-4.78-1.25-5.52-2.09-5.77-17.62-5.09-34.87-11.76-51.27-19.83h0c-.32-.16-.91-.45-1.65-.45-1.09,0-2.5.64-3.86,3.27l-2.65,5.19c-.84,1.65-1.1,3.09-.75,4.16.27.82.92,1.49,1.92,1.99,6.08,2.99,12.33,5.82,18.58,8.43l.92.38-30.58,73.15c-.64,1.53-.74,2.84-.29,3.92.45,1.08,1.47,1.95,3.04,2.57,2.89,1.16,5.86,2.3,8.81,3.4,1.57.58,2.91.63,3.97.14,1.06-.49,1.87-1.53,2.43-3.09Z"/>
      <path class="cls-1" d="m334.29,835.46c-.39,1.62-.28,2.94.33,3.92.61.98,1.74,1.67,3.36,2.03,3.11.69,6.28,1.36,9.41,1.98,1.62.32,2.93.15,3.89-.5.96-.65,1.6-1.82,1.9-3.45l16.45-88.55c.9-4.88-1.71-5.39-2.56-5.56-2.36-.47-4.77-.98-7.14-1.51-.85-.19-3.45-.77-4.62,4.06l-21.01,87.58Z"/>
      <path class="cls-1" d="m432.19,751.43c-14.29.14-28.71-.7-42.88-2.49h0c-.16-.02-.39-.05-.65-.05-1.13,0-2.98.53-3.55,4.52l-12.65,89.16c-.24,1.65,0,2.95.7,3.88.7.92,1.88,1.49,3.52,1.7,18.71,2.36,37.78,3.46,56.66,3.27,1.64-.02,2.88-.45,3.68-1.28.81-.84,1.2-2.11,1.15-3.77l-.14-5.83c-.09-3.3-1.64-4.9-4.75-4.9-.03,0-.06,0-.1,0-13.19.13-26.52-.39-39.64-1.56l-1-.09,2.35-26.25,1,.09c11.15.99,22.46,1.5,33.68,1.47,1.35,0,2.39-.37,3.09-1.08.81-.83,1.21-2.15,1.18-3.92l-.09-5.83c-.06-3.33-1.43-4.95-4.19-4.95-.12.01-.27,0-.4,0-10.59,0-21.31-.47-31.87-1.41l-1-.09,2.34-26.2,1,.09c10.83.96,21.83,1.39,32.7,1.29,1.08-.01,1.92-.32,2.5-.93.79-.81,1.18-2.23,1.13-4.1l-.14-5.83c-.13-4.96-2.76-4.92-3.64-4.93Z"/>
      <path class="cls-1" d="m471.68,785.19c14.15,18.73,30.25,36.56,47.84,52.98,2.11,1.98,4.12,2.51,6.97,1.83,2.61-.62,5.24-1.28,7.84-1.95,1.61-.42,2.71-1.14,3.29-2.15.58-1.01.65-2.33.2-3.93l-24.02-86.82c-1.33-4.78-3.91-4.11-4.76-3.89-2.33.6-4.69,1.19-7.02,1.74-.85.2-3.44.8-2.37,5.65l12.81,57.78-2.32.51-.39-.39c-16.46-16.81-31.37-34.95-44.32-53.91-1.31-1.94-2.6-2.78-4.34-2.78-.19,0-.39,0-.59.03-2.09.21-4.18.39-6.27.56-.87.07-3.5.27-3.19,5.22l5.85,89.86c.11,1.67.6,2.89,1.48,3.66.87.76,2.14,1.07,3.79.95,3.18-.25,6.39-.54,9.54-.86,1.64-.17,2.83-.71,3.55-1.61.73-.91,1-2.21.8-3.86l-6.9-58.83,2.19-.25.34.46Z"/>
      <path class="cls-1" d="m526.04,741.58l1.74,5.56c.55,1.78,1.38,2.99,2.39,3.51.76.39,1.67.42,2.71.08,6.41-2.1,12.83-4.42,19.07-6.89l.93-.37,29.33,73.65c.61,1.54,1.46,2.55,2.54,3.01,1.08.46,2.42.36,3.97-.28,2.92-1.21,5.85-2.46,8.71-3.72,1.55-.68,2.54-1.59,2.96-2.69.41-1.09.27-2.4-.42-3.9l-33.11-72.04.91-.42c6.19-2.84,12.35-5.9,18.33-9.11.99-.53,1.62-1.23,1.87-2.07.32-1.09.01-2.52-.89-4.13l-2.83-5.1c-2.42-4.33-4.82-3.04-5.61-2.62-16.15,8.66-33.2,15.96-50.68,21.67-.83.27-3.38,1.1-1.9,5.84Z"/>
      <path class="cls-1" d="m618.42,750.93c-2.54,1.53-2.97,3.67-1.3,6.56l2.45,4.22c.86,1.5,1.87,2.4,3,2.69,1.04.27,2.21.02,3.49-.75,9.32-5.6,18.52-11.69,27.34-18.08,1.23-.9,1.94-1.9,2.1-2.98.17-1.15-.26-2.43-1.28-3.8l-2.92-3.92c-1.2-1.6-2.45-2.4-3.79-2.4-.89,0-1.83.36-2.8,1.07-8.48,6.15-17.32,12-26.28,17.39Z"/>
      <path class="cls-1" d="m661.03,718.94h0c11.38,14.47,24.11,22.52,36.81,23.29,9.88.62,19.49-3.45,27.77-11.7,8.35-8.5,12.41-18.41,11.73-28.64-.86-12.88-8.87-25.57-23.18-36.69-14.45-11.28-28.09-16.99-39.82-16.99-8.58,0-16.12,3.05-22.21,9.21-14.24,14.32-11.08,36.17,8.9,61.52Zm29.07-48.11c3.83,2.43,7.78,5.46,11.74,9.02,11.05,9.78,17.05,19.31,17.32,27.57.15,4.6-1.44,8.63-4.75,11.98-1.4,1.41-2.9,2.51-4.48,3.26l-1.01.48-.36-1.06c-5.81-17.07-12.5-33.88-19.9-49.98l-1.41-3.07,2.85,1.81Zm-26.79-2.27c1.17-1.19,2.43-2.06,3.83-2.67l.91-.39.4.9c7.19,16.09,13.66,32.88,19.23,49.9l1,3.06-2.56-1.95c-3.61-2.75-7.36-6.26-11.15-10.43-15.23-17.01-19.37-30.66-11.66-38.42Z"/>
      <path class="cls-1" d="m302.46,709.8c.97.43,1.94.85,2.91,1.27,29.58,12.66,61.61,20.87,95.29,23.81,103.01,8.99,203.29-33.36,268.25-113.28,3.95-4.86,2.53-10.3-.62-13.53-3.19-3.27-8.64-4.84-13.65-.97-34.24,26.44-74.89,43.73-117.55,49.99-3.52.52-6.08,3.46-6.08,7v6.97c0,26.1-20.89,47.64-46.57,48.01-12.73.18-24.76-4.65-33.86-13.61-9.09-8.96-14.1-20.91-14.1-33.65v-14.65c0-3.15-2.12-5.95-5.17-6.81-38.52-10.83-74.44-31.06-103.89-58.5-1.61-1.5-3.69-2.4-5.84-2.52-2.23-.13-5.26-.36-7-.7l-105.83-20.92c-25.56-5.06-42.25-29.97-37.21-55.53,5.06-25.56,29.97-42.26,55.53-37.21l19.55,3.86c2.4.48,4.84-.3,6.51-2.08,1.68-1.78,2.32-4.26,1.7-6.63-9.63-37.24-10.64-75.84-3.02-114.73,9.66-49.28,33.71-94.04,69.53-129.45,35.81-35.4,80.86-58.94,130.26-68.08,26.08-4.82,52.31-5.76,77.96-2.77,6.23.71,10.08-3.41,11.12-7.82,1.04-4.4-.54-9.79-6.41-11.92-33.85-12.31-69.44-18.54-105.8-18.54-85.86,0-168.61,36.12-227.04,99.09-59.24,63.85-88.26,147.11-81.71,234.44,2.52,33.62,10.29,65.67,22.51,95.34.42,1.01.85,2.03,1.28,3.03.25.6.5,1.19.76,1.79,30.63,70.24,86.58,126.96,156.39,158.52.59.27,1.19.53,1.79.79Z"/>
      <path class="cls-1" d="m540.35,195.47c-37.86,0-68.67,30.8-68.67,68.67s30.8,68.67,68.67,68.67,68.67-30.8,68.67-68.67-30.8-68.67-68.67-68.67Z"/>
      <path class="cls-1" d="m629.31,432.91c4.32-8.64,5.02-18.45,1.97-27.61-6.32-18.92-26.84-29.18-45.76-22.87l-43,14.33c-1.95.65-4.03.5-5.86-.43-1.83-.93-3.19-2.51-3.82-4.47l-14.68-45.34c-.39-1.2-.85-2.38-1.34-3.5-.18-.43-.39-.87-.63-1.35-.31-.61-.57-1.12-.85-1.62-.57-1.02-1.22-2.07-1.95-3.11-.33-.48-.68-.94-1.03-1.41l-.05-.07c-.38-.48-.76-.96-1.16-1.42-.55-.65-1.13-1.28-1.79-1.92-.51-.51-1.19-1.17-1.92-1.79-.53-.47-1.11-.94-1.78-1.45-.35-.26-.72-.53-1.08-.8-.68-.49-1.37-.94-2.09-1.37l-.21-.13c-.36-.21-.72-.43-1.09-.62-.11-.07-.19-.11-.28-.15l-73.57-40.47c-13.36-7.35-30-5.49-41.4,4.62l-86.15,76.3c-7.23,6.41-11.54,15.24-12.12,24.89-.58,9.64,2.62,18.94,9.03,26.17,13.23,14.93,36.13,16.33,51.06,3.1l61.79-54.74c3.15-2.79,7.75-3.3,11.44-1.27l5.64,3.1c1.6.88,2.74,2.34,3.19,4.11.46,1.77.17,3.59-.8,5.14l-53.23,84.69-.04.04-57.4,40.35c-1.74,1.22-3.93,1.69-6.02,1.28l-87.38-17.28c-19.55-3.86-38.62,8.91-42.5,28.48-3.86,19.56,8.92,38.62,28.48,42.5l105.83,20.93c2.3.45,4.66.68,7.01.68,7.49,0,14.68-2.28,20.81-6.59l51.33-36.1c1.65-1.16,3.57-1.74,5.47-1.74,2.04,0,4.07.66,5.79,1.97l37.24,28.52c2,1.53,3.19,3.95,3.19,6.47v100.18c0,9.91,4.06,19.58,11.13,26.52,6.8,6.67,15.67,10.32,25.05,10.32.23,0,.46,0,.7,0,19.55-.38,35.46-16.6,35.46-36.16v-122.73c0-11.18-5.3-21.91-14.18-28.71l-49.41-37.84c-3.21-2.46-4.01-6.9-1.86-10.33l15.17-24.13c.65-1.03,1.8-1.58,3.02-1.43,1.21.15,2.2.97,2.58,2.13l2.4,7.42c2.95,9.13,9.55,16.83,18.1,21.14,5.04,2.55,10.68,3.89,16.31,3.89,3.89,0,7.74-.62,11.44-1.86l84.9-28.31c9.17-3.05,16.6-9.49,20.92-18.13Z"/>
    </g>
  </g>
</svg>