<?xml version="1.0" encoding="UTF-8"?>
<svg id="Layer_1" data-name="Layer 1" xmlns="http://www.w3.org/2000/svg" viewBox="0 0 1527.68 1097.61">
  <defs>
    <style>
      .cls-1, .cls-2, .cls-3, .cls-4, .cls-5, .cls-6, .cls-7, .cls-8, .cls-9 {
        fill: none;
      }

      .cls-1, .cls-2, .cls-3, .cls-4, .cls-5, .cls-6, .cls-8 {
        stroke: #d8d8e5;
      }

      .cls-1, .cls-2, .cls-3, .cls-6, .cls-8 {
        stroke-linecap: round;
        stroke-linejoin: round;
      }

      .cls-1, .cls-2, .cls-8 {
        stroke-width: 7px;
      }

      .cls-10 {
        letter-spacing: -.01em;
      }

      .cls-11 {
        font-size: 37.21px;
      }

      .cls-11, .cls-12, .cls-13, .cls-14, .cls-15, .cls-16, .cls-17, .cls-18 {
        font-family: OpenRunde-Bold, 'Open Runde';
        font-weight: 700;
      }

      .cls-11, .cls-14, .cls-15, .cls-19 {
        fill: #01010d;
      }

      .cls-12 {
        font-size: 26.09px;
      }

      .cls-12, .cls-13, .cls-20, .cls-18 {
        fill: #d8d8e5;
      }

      .cls-21, .cls-16, .cls-4, .cls-5, .cls-9 {
        stroke-miterlimit: 10;
      }

      .cls-21, .cls-16, .cls-22, .cls-17, .cls-23 {
        fill: #fc3;
      }

      .cls-21, .cls-16, .cls-9 {
        stroke: #fc3;
      }

      .cls-24 {
        letter-spacing: -.02em;
      }

      .cls-13, .cls-16, .cls-17 {
        font-size: 30px;
      }

      .cls-2 {
        stroke-dasharray: 0 0 20 20;
      }

      .cls-14 {
        font-size: 28.88px;
      }

      .cls-15 {
        font-size: 42.97px;
      }

      .cls-3 {
        stroke-dasharray: 0 0 20.94 20.94;
      }

      .cls-3, .cls-5, .cls-6, .cls-9 {
        stroke-width: 5px;
      }

      .cls-25 {
        letter-spacing: -.02em;
      }

      .cls-4 {
        stroke-width: 10px;
      }

      .cls-22 {
        opacity: .6;
      }

      .cls-26 {
        letter-spacing: -.03em;
      }

      .cls-18 {
        font-size: 23.66px;
      }

      .cls-7 {
        opacity: .5;
      }

      .cls-27 {
        letter-spacing: 0em;
      }

      .cls-28 {
        letter-spacing: 0em;
      }

      .cls-29 {
        letter-spacing: -.02em;
      }

      .cls-30 {
        letter-spacing: -.02em;
      }

      .cls-31 {
        letter-spacing: .02em;
      }

      .cls-32 {
        letter-spacing: -.06em;
      }

      .cls-8 {
        stroke-dasharray: 0 0 20.26 20.26;
      }

      .cls-33 {
        letter-spacing: -.02em;
      }
    </style>
  </defs>
  <rect class="cls-19" x="112.86" y="65.61" width="1000" height="1000"/>
  <path class="cls-22" d="m750.01,45.03c-45.15,20.58-219.35,200.17-311.15,217.58-58,11,31.48,60.23,1.74,82.12s-133.17,79.17-136.95,113.53,218.64,200.89,197.43,240.12-111.21,84.23-94.21,126.23,197,244,221,235,101.03-98.06,110.51-118.53-118.44-125.97-115.98-148.22,118.05-80.4,117.76-112.32-86.29-146.02-76.79-158.97,46.68-68.79,66.09-62.37,239.47,183.21,267.41,170.42c0,0,113-131,99-153s-181-119-203-155S790.32,26.66,750.01,45.03Z"/>
  <g id="Leie" class="cls-7">
    <path class="cls-20" d="m57,394.22c44.09-11.56,88.07-23.56,131.68-36.81s85.52-27.31,127.32-43.64c44.08-17.23,87.55-36.31,129.29-58.66,38-20.36,74.55-43.45,108.73-69.74,37.51-28.85,72.65-60.13,103.69-95.95,3.58-4.14,7.11-8.32,10.59-12.55,4.39-4.08,7.49-8.9,9.3-14.48,2.82-5.36,4.11-11.14,3.88-17.34.23-6.2-1.06-11.97-3.88-17.34-1.81-5.58-4.92-10.41-9.3-14.48-8.58-7.87-19.83-13.72-31.82-13.18l-11.96,1.61c-7.62,2.14-14.24,6-19.86,11.57-24.07,29.27-50.79,56.31-79.67,80.85-8.1,6.88-16.36,13.56-24.77,20.06l9.11-7.04c-46.54,35.88-97.44,65.75-150.45,91-15.04,7.16-30.25,13.96-45.6,20.45l10.75-4.54c-36.18,15.26-73.06,28.79-110.33,41.12s-76.2,23.87-114.66,34.56c-21.94,6.09-43.93,11.98-65.95,17.75-10.86,2.85-21.25,11.03-26.89,20.68-3.29,5.17-5.07,10.74-5.34,16.73-1.34,5.98-1.07,11.96.8,17.94,3.52,10.89,10.27,21.39,20.68,26.89s22.67,7.69,34.68,4.54h0Z"/>
  </g>
  <g id="Trains">
    <g>
      <path class="cls-1" d="m303.65,62.52c1.93,2.72,3.85,5.44,5.78,8.16"/>
      <path class="cls-8" d="m321.15,87.21c92.94,130.98,187.9,261.29,301.64,374.54,120.89,120.36,265.15,221.6,429.01,269.06,145.9,42.26,300.44,40.35,452.29,31.22"/>
      <path class="cls-1" d="m1514.2,761.41c3.33-.21,6.66-.42,9.98-.63"/>
    </g>
  </g>
  <g>
    <path class="cls-20" d="m856.88,341.9c16.07,27.21,39.85,48.39,64.47,67.71,26.98,21.18,54.29,42.26,82.97,61.11,14.36,9.44,29.15,18.24,44.53,25.9s30.12,13.57,45.77,18.84c29.05,9.77,58.96,16.65,88.27,25.54,7.35,2.23,14.67,4.59,21.92,7.16,3.49,1.24,6.97,2.53,10.42,3.87,1.72.67,3.44,1.36,5.14,2.06.5.21,1,.41,1.5.62.26.11,1.33.56,0,0,.9.38,1.79.77,2.69,1.16,13.77,6.01,27.06,13.15,39.32,21.86,1.42,1.01,2.83,2.04,4.22,3.09.35.26.7.53,1.04.79-1.09-.83-.17-.13.04.03.86.68,1.72,1.36,2.57,2.06,3.04,2.47,7.67,3.19,10.61,0,2.52-2.74,3.25-7.96,0-10.61-24.11-19.59-52.33-32.42-81.64-42.17-29.16-9.7-59.15-16.56-88.51-25.57-7.3-2.24-14.55-4.61-21.74-7.19-3.52-1.27-7.03-2.58-10.52-3.96-1.74-.69-3.47-1.39-5.2-2.1-.15-.06-1.41-.59-.7-.29.92.39-1.33-.57-1.16-.49-1.02-.44-2.04-.89-3.06-1.34-15.59-6.91-30.6-15.09-45.11-24.04-29.18-17.99-56.4-38.98-83.57-59.82-.75-.58-1.51-1.16-2.26-1.74-.34-.26-2.29-1.77-1.31-1.01-1.69-1.31-3.39-2.63-5.07-3.95-3.19-2.5-6.36-5.02-9.5-7.57-6.45-5.25-12.78-10.65-18.87-16.31s-11.71-11.35-17.09-17.47c-1.32-1.51-2.62-3.03-3.9-4.58-.6-.73-1.19-1.46-1.78-2.2-.29-.37-.59-.74-.88-1.11-.82-1.04.13.2-.34-.44-2.33-3.09-4.6-6.23-6.73-9.46-1.28-1.94-2.42-3.97-3.6-5.97-2-3.38-6.85-4.89-10.26-2.69s-4.83,6.65-2.69,10.26h0Z"/>
    <path class="cls-20" d="m738.83,66.29c6.74,16.15,13.22,32.41,19.45,48.76,5.36,14.08,10.52,28.23,15.66,42.39,5.08,14.02,10.15,28.04,15.38,42,5.88,15.7,11.98,31.32,18.33,46.84,3,7.33,5.99,14.66,9.34,21.85s6.96,14.43,10.64,21.54c1.08,2.08,2.16,4.16,3.26,6.23,1.83,3.48,6.96,4.82,10.26,2.69,3.54-2.28,4.65-6.54,2.69-10.26-6.31-11.97-12.54-24.06-17.8-36.53l.76,1.79c-10.6-25.22-20.39-50.77-29.78-76.45-8.46-23.13-16.71-46.34-25.51-69.35-5.84-15.25-11.91-30.41-18.2-45.48-.79-1.89-1.61-3.41-3.45-4.48-1.61-.94-3.98-1.34-5.78-.76s-3.57,1.71-4.48,3.45-1.51,3.97-.76,5.78h0Z"/>
    <circle class="cls-4" cx="847.86" cy="314.61" r="23"/>
    <line class="cls-5" x1="863.36" y1="297.62" x2="1158.86" y2="165.61"/>
    <path class="cls-5" d="m828.18,326.53s-230.82,253.59-350.82,330.59"/>
    <line class="cls-5" x1="746.06" y1="949.44" x2="294.36" y2="458.26"/>
    <path class="cls-5" d="m515.18,698.38s-256.82,300.89-402.32,309.31"/>
    <g>
      <path class="cls-6" d="m424.25,599.51c-2.44,2.24-4.88,4.52-7.32,6.82"/>
      <path class="cls-3" d="m401.73,620.72c-32.94,30.9-69.45,60.64-130.37,57.39-47.93-2.56-67.68,23.88-75.69,43.3"/>
      <path class="cls-6" d="m192.3,731.31c-1.59,5.88-1.94,9.8-1.94,9.8"/>
    </g>
    <path class="cls-4" d="m696.36,1025.11c50-144,414.58-394,542.79-464.5"/>
    <circle class="cls-4" cx="686.36" cy="1048.11" r="23"/>
  </g>
  <path class="cls-2" d="m779.36,1094.11c81-145,16.45-487.5-77.77-559.75"/>
  <path class="cls-20" d="m682.5,453.04l64.45-86.23c6.03-8.07,2.78-19.66-6.57-23.41l-102.68-41.22c-6.63-2.66-14.22-.39-18.3,5.47l-30.87,44.38c-3.94,5.66-3.61,13.26.8,18.56l69.1,83.07c6.34,7.62,18.14,7.32,24.07-.63Z"/>
  <path class="cls-20" d="m705.54,502.95l17.6-31.81c2.54-4.6,8.46-6.05,12.85-3.16l240.95,159.06c3.91,2.58,5.19,7.73,2.94,11.84l-20.23,36.96c-2.56,4.69-8.62,6.12-13.02,3.09l-238.32-164.22c-3.82-2.63-5.02-7.73-2.77-11.78Z"/>
  <path class="cls-20" d="m456.96,810.75l40.34-40.07c1.99-1.98,5.01-2.48,7.53-1.25l52.87,25.68c2.96,1.44,4.41,4.83,3.4,7.96l-16.89,52.35c-.82,2.54-3.09,4.34-5.75,4.55l-53.33,4.3c-2.6.21-5.08-1.13-6.33-3.42l-23-42.26c-1.4-2.58-.94-5.77,1.15-7.84Z"/>
  <path class="cls-20" d="m422.41,649.78l45.16,48.4c5.44,5.83,5.23,14.94-.47,20.52l-115.57,113c-5.91,5.77-15.41,5.54-21.03-.51l-64.98-70.01c-6.13-6.6-4.92-17.12,2.55-22.16l135.39-91.39c5.99-4.04,14.02-3.13,18.95,2.15Z"/>
  <rect class="cls-19" x="777.36" y="780.11" width="60" height="52"/>
  <path class="cls-21" d="m838.49,175.89l55.31-20.65c3.82-1.42,8.04.67,9.22,4.58l26,86.67c1.04,3.47-.72,7.17-4.07,8.54l-54.43,22.36c-3.84,1.58-8.21-.49-9.42-4.47l-26.89-88.39c-1.08-3.56.79-7.35,4.28-8.65Z"/>
  <text class="cls-15" transform="translate(601.3 361.01) rotate(24.17)"><tspan class="cls-31" x="0" y="0">L</tspan><tspan class="cls-26" x="25.16" y="0">A</tspan><tspan class="cls-28" x="55.83" y="0">GO</tspan></text>
  <text class="cls-15" transform="translate(745.63 526.58) rotate(32.3)"><tspan x="0" y="0">Hanga</tspan><tspan class="cls-25" x="135.86" y="0">r</tspan><tspan x="152.74" y="0">-K</tspan></text>
  <text class="cls-11" transform="translate(337.98 783.16) rotate(-41.38)"><tspan class="cls-32" x="0" y="0">W</tspan><tspan x="36.35" y="0">eide</tspan></text>
  <text class="cls-13" transform="translate(366.98 501.16) rotate(-41.38)"><tspan class="cls-10" x="0" y="0">P</tspan><tspan x="18.99" y="0">arking 4</tspan></text>
  <text class="cls-13" transform="translate(600.98 726.16) rotate(-41.38)"><tspan class="cls-10" x="0" y="0">P</tspan><tspan x="18.99" y="0">arking 3</tspan></text>
  <text class="cls-12" transform="translate(575.16 240.85) rotate(9.1)"><tspan x="0" y="0">Nelson Mandela</tspan></text>
  <text class="cls-18" transform="translate(560.12 877.92) rotate(48.62)"><tspan x="0" y="0">Magdalena</tspan></text>
  <text class="cls-14" transform="translate(466.76 832.55)"><tspan class="cls-27" x="0" y="0">P</tspan><tspan x="18.44" y="0">enta</tspan></text>
  <text class="cls-14" transform="translate(863.07 181.92) rotate(73.87)"><tspan x="0" y="0">L</tspan><tspan class="cls-33" x="16.38" y="0">e</tspan><tspan class="cls-29" x="33.2" y="0">v</tspan><tspan x="49.6" y="0">el</tspan></text>
  <text class="cls-17" transform="translate(959.44 326.25)"><tspan x="0" y="0">Bun</tspan><tspan class="cls-24" x="57.13" y="0">k</tspan><tspan x="73.9" y="0">er</tspan></text>
  <text class="cls-16" transform="translate(635.44 814.25)"><tspan x="0" y="0">Outpost: Living</tspan></text>
  <text class="cls-17" transform="translate(379.44 135.25)"><tspan x="0" y="0">Hi</tspan><tspan class="cls-30" x="30.54" y="0">v</tspan><tspan x="47.58" y="0">e: Bridge</tspan></text>
  <text class="cls-17" transform="translate(158.44 260.25)"><tspan x="0" y="0">Hi</tspan><tspan class="cls-30" x="30.54" y="0">v</tspan><tspan x="47.58" y="0">e: Cage</tspan></text>
  <g>
    <line class="cls-23" x1="721.12" y1="783.16" x2="639.54" y2="726.39"/>
    <g>
      <line class="cls-9" x1="721.12" y1="783.16" x2="654.27" y2="736.64"/>
      <polygon class="cls-23" points="664.38 728.49 639.54 726.39 650.14 748.95 664.38 728.49"/>
    </g>
  </g>
  <g>
    <line class="cls-23" x1="314.36" y1="278.11" x2="401.36" y2="431.11"/>
    <g>
      <line class="cls-9" x1="314.36" y1="278.11" x2="392.49" y2="415.52"/>
      <polygon class="cls-23" points="379.85 418.51 401.36 431.11 401.52 406.18 379.85 418.51"/>
    </g>
  </g>
  <g>
    <line class="cls-23" x1="570.36" y1="131.11" x2="750.36" y2="106.11"/>
    <g>
      <line class="cls-9" x1="570.36" y1="131.11" x2="732.59" y2="108.58"/>
      <polygon class="cls-23" points="730.69 121.43 750.36 106.11 727.26 96.73 730.69 121.43"/>
    </g>
  </g>
</svg>