<?xml version="1.0" encoding="UTF-8"?>
<svg id="Layer_1" data-name="Layer 1" xmlns="http://www.w3.org/2000/svg" viewBox="0 0 1527.68 1097.61">
  <defs>
    <style>
      .cls-1, .cls-2, .cls-3, .cls-4, .cls-5, .cls-6, .cls-7, .cls-8, .cls-9 {
        fill: none;
      }

      .cls-1, .cls-2, .cls-3, .cls-4, .cls-5, .cls-6, .cls-8 {
        stroke: #d8d8e5;
      }

      .cls-1, .cls-2, .cls-3, .cls-6, .cls-8 {
        stroke-linecap: round;
        stroke-linejoin: round;
      }

      .cls-1, .cls-2, .cls-8 {
        stroke-width: 7px;
      }

      .cls-10, .cls-11, .cls-12 {
        fill: #fc3;
      }

      .cls-10, .cls-4, .cls-5, .cls-9 {
        stroke-miterlimit: 10;
      }

      .cls-10, .cls-9 {
        stroke: #fc3;
      }

      .cls-2 {
        stroke-dasharray: 0 0 20 20;
      }

      .cls-13 {
        fill: #d8d8e5;
      }

      .cls-14 {
        fill: #01010d;
      }

      .cls-3 {
        stroke-dasharray: 0 0 20.94 20.94;
      }

      .cls-3, .cls-5, .cls-6, .cls-9 {
        stroke-width: 5px;
      }

      .cls-11 {
        opacity: .6;
      }

      .cls-4 {
        stroke-width: 10px;
      }

      .cls-7 {
        opacity: .5;
      }

      .cls-8 {
        stroke-dasharray: 0 0 20.26 20.26;
      }
    </style>
  </defs>
  <rect class="cls-14" x="112.86" y="65.61" width="1000" height="1000"/>
  <path class="cls-11" d="m750.01,45.03c-45.15,20.58-219.35,200.17-311.15,217.58-58,11,31.48,60.23,1.74,82.12s-133.17,79.17-136.95,113.53,218.64,200.89,197.43,240.12-111.21,84.23-94.21,126.23,197,244,221,235,101.03-98.06,110.51-118.53-118.44-125.97-115.98-148.22,118.05-80.4,117.76-112.32-86.29-146.02-76.79-158.97,46.68-68.79,66.09-62.37,239.47,183.21,267.41,170.42c0,0,113-131,99-153s-181-119-203-155S790.32,26.66,750.01,45.03Z"/>
  <g id="Leie" class="cls-7">
    <path class="cls-13" d="m57,394.22c44.09-11.56,88.07-23.56,131.68-36.81s85.52-27.31,127.32-43.64c44.08-17.23,87.55-36.31,129.29-58.66,38-20.36,74.55-43.45,108.73-69.74,37.51-28.85,72.65-60.13,103.69-95.95,3.58-4.14,7.11-8.32,10.59-12.55,4.39-4.08,7.49-8.9,9.3-14.48,2.82-5.36,4.11-11.14,3.88-17.34.23-6.2-1.06-11.97-3.88-17.34-1.81-5.58-4.92-10.41-9.3-14.48-8.58-7.87-19.83-13.72-31.82-13.18l-11.96,1.61c-7.62,2.14-14.24,6-19.86,11.57-24.07,29.27-50.79,56.31-79.67,80.85-8.1,6.88-16.36,13.56-24.77,20.06l9.11-7.04c-46.54,35.88-97.44,65.75-150.45,91-15.04,7.16-30.25,13.96-45.6,20.45,3.58-1.51,7.17-3.02,10.75-4.54-36.18,15.26-73.06,28.79-110.33,41.12-37.9,12.54-76.2,23.87-114.66,34.56-21.94,6.09-43.93,11.98-65.95,17.75-10.86,2.85-21.25,11.03-26.89,20.68-3.29,5.17-5.07,10.74-5.34,16.73-1.34,5.98-1.07,11.96.8,17.94,3.52,10.89,10.27,21.39,20.68,26.89s22.67,7.69,34.68,4.54h0Z"/>
  </g>
  <g id="Trains">
    <g>
      <path class="cls-1" d="m303.65,62.52c1.93,2.72,3.85,5.44,5.78,8.16"/>
      <path class="cls-8" d="m321.15,87.21c92.94,130.98,187.9,261.29,301.64,374.54,120.89,120.36,265.15,221.6,429.01,269.06,145.9,42.26,300.44,40.35,452.29,31.22"/>
      <path class="cls-1" d="m1514.2,761.41c3.33-.21,6.66-.42,9.98-.63"/>
    </g>
  </g>
  <g>
    <path class="cls-13" d="m856.88,341.9c16.07,27.21,39.85,48.39,64.47,67.71,26.98,21.18,54.29,42.26,82.97,61.11,14.36,9.44,29.15,18.24,44.53,25.9,14.79,7.37,30.12,13.57,45.77,18.84,29.05,9.77,58.96,16.65,88.27,25.54,7.35,2.23,14.67,4.59,21.92,7.16,3.49,1.24,6.97,2.53,10.42,3.87,1.72.67,3.44,1.36,5.14,2.06.5.21,1,.41,1.5.62.26.11,1.33.56,0,0,.9.38,1.79.77,2.69,1.16,13.77,6.01,27.06,13.15,39.32,21.86,1.42,1.01,2.83,2.04,4.22,3.09.35.26.7.53,1.04.79-1.09-.83-.17-.13.04.03.86.68,1.72,1.36,2.57,2.06,3.04,2.47,7.67,3.19,10.61,0,2.52-2.74,3.25-7.96,0-10.61-24.11-19.59-52.33-32.42-81.64-42.17-29.16-9.7-59.15-16.56-88.51-25.57-7.3-2.24-14.55-4.61-21.74-7.19-3.52-1.27-7.03-2.58-10.52-3.96-1.74-.69-3.47-1.39-5.2-2.1-.15-.06-1.41-.59-.7-.29.92.39-1.33-.57-1.16-.49-1.02-.44-2.04-.89-3.06-1.34-15.59-6.91-30.6-15.09-45.11-24.04-29.18-17.99-56.4-38.98-83.57-59.82-.75-.58-1.51-1.16-2.26-1.74-.34-.26-2.29-1.77-1.31-1.01-1.69-1.31-3.39-2.63-5.07-3.95-3.19-2.5-6.36-5.02-9.5-7.57-6.45-5.25-12.78-10.65-18.87-16.31s-11.71-11.35-17.09-17.47c-1.32-1.51-2.62-3.03-3.9-4.58-.6-.73-1.19-1.46-1.78-2.2-.29-.37-.59-.74-.88-1.11-.82-1.04.13.2-.34-.44-2.33-3.09-4.6-6.23-6.73-9.46-1.28-1.94-2.42-3.97-3.6-5.97-2-3.38-6.85-4.89-10.26-2.69s-4.83,6.65-2.69,10.26h0Z"/>
    <path class="cls-13" d="m738.83,66.29c6.74,16.15,13.22,32.41,19.45,48.76,5.36,14.08,10.52,28.23,15.66,42.39,5.08,14.02,10.15,28.04,15.38,42,5.88,15.7,11.98,31.32,18.33,46.84,3,7.33,5.99,14.66,9.34,21.85s6.96,14.43,10.64,21.54c1.08,2.08,2.16,4.16,3.26,6.23,1.83,3.48,6.96,4.82,10.26,2.69,3.54-2.28,4.65-6.54,2.69-10.26-6.31-11.97-12.54-24.06-17.8-36.53l.76,1.79c-10.6-25.22-20.39-50.77-29.78-76.45-8.46-23.13-16.71-46.34-25.51-69.35-5.84-15.25-11.91-30.41-18.2-45.48-.79-1.89-1.61-3.41-3.45-4.48-1.61-.94-3.98-1.34-5.78-.76s-3.57,1.71-4.48,3.45-1.51,3.97-.76,5.78h0Z"/>
    <circle class="cls-4" cx="847.86" cy="314.61" r="23"/>
    <line class="cls-5" x1="863.36" y1="297.62" x2="1158.86" y2="165.61"/>
    <path class="cls-5" d="m828.18,326.53s-230.82,253.59-350.82,330.59"/>
    <line class="cls-5" x1="746.06" y1="949.44" x2="294.36" y2="458.26"/>
    <path class="cls-5" d="m515.18,698.38s-256.82,300.89-402.32,309.31"/>
    <g>
      <path class="cls-6" d="m424.25,599.51c-2.44,2.24-4.88,4.52-7.32,6.82"/>
      <path class="cls-3" d="m401.73,620.72c-32.94,30.9-69.45,60.64-130.37,57.39-47.93-2.56-67.68,23.88-75.69,43.3"/>
      <path class="cls-6" d="m192.3,731.31c-1.59,5.88-1.94,9.8-1.94,9.8"/>
    </g>
    <path class="cls-4" d="m696.36,1025.11c50-144,414.58-394,542.79-464.5"/>
    <circle class="cls-4" cx="686.36" cy="1048.11" r="23"/>
  </g>
  <path class="cls-2" d="m779.36,1094.11c81-145,16.45-487.5-77.77-559.75"/>
  <path class="cls-13" d="m682.5,453.04l64.45-86.23c6.03-8.07,2.78-19.66-6.57-23.41l-102.68-41.22c-6.63-2.66-14.22-.39-18.3,5.47l-30.87,44.38c-3.94,5.66-3.61,13.26.8,18.56l69.1,83.07c6.34,7.62,18.14,7.32,24.07-.63Z"/>
  <path class="cls-13" d="m705.54,502.95l17.6-31.81c2.54-4.6,8.46-6.05,12.85-3.16l240.95,159.06c3.91,2.58,5.19,7.73,2.94,11.84l-20.23,36.96c-2.56,4.69-8.62,6.12-13.02,3.09l-238.32-164.22c-3.82-2.63-5.02-7.73-2.77-11.78Z"/>
  <path class="cls-13" d="m456.96,810.75l40.34-40.07c1.99-1.98,5.01-2.48,7.53-1.25l52.87,25.68c2.96,1.44,4.41,4.83,3.4,7.96l-16.89,52.35c-.82,2.54-3.09,4.34-5.75,4.55l-53.33,4.3c-2.6.21-5.08-1.13-6.33-3.42l-23-42.26c-1.4-2.58-.94-5.77,1.15-7.84Z"/>
  <path class="cls-13" d="m422.41,649.78l45.16,48.4c5.44,5.83,5.23,14.94-.47,20.52l-115.57,113c-5.91,5.77-15.41,5.54-21.03-.51l-64.98-70.01c-6.13-6.6-4.92-17.12,2.55-22.16l135.39-91.39c5.99-4.04,14.02-3.13,18.95,2.15Z"/>
  <rect class="cls-14" x="777.36" y="780.11" width="60" height="52"/>
  <path class="cls-10" d="m838.49,175.89l55.31-20.65c3.82-1.42,8.04.67,9.22,4.58l26,86.67c1.04,3.47-.72,7.17-4.07,8.54l-54.43,22.36c-3.84,1.58-8.21-.49-9.42-4.47l-26.89-88.39c-1.08-3.56.79-7.35,4.28-8.65Z"/>
  <g>
    <path class="cls-14" d="m618.27,334.32l2.69,1.21c1.09.49,1.41,1.33.92,2.42l-9.81,21.87,10.55,4.74c1.08.49,1.41,1.33.92,2.42l-.73,1.63c-.49,1.09-1.33,1.41-2.42.92l-14.91-6.69c-1.09-.49-1.41-1.33-.92-2.42l11.3-25.17c.49-1.09,1.33-1.41,2.42-.92Z"/>
    <path class="cls-14" d="m626.72,370.08l20.05-21.34c.74-.79,1.54-.93,2.51-.49l4.9,2.2c.97.44,1.4,1.13,1.3,2.21l-2.63,29.16c-.12,1.35-1,1.84-2.22,1.29l-2.99-1.34c-.97-.44-1.39-1.16-1.27-2.23l.63-5.87-10.29-4.62-3.97,4.37c-.73.79-1.54.97-2.51.53l-2.99-1.34c-1.23-.55-1.43-1.55-.51-2.52Zm20.87-1.81l1.33-12.36-.22-.1-8.35,9.21,7.24,3.25Z"/>
    <path class="cls-14" d="m682.36,372.59c-.16-2.33-1.55-4.26-4.11-5.41-4.36-1.96-8.83.07-11.49,6-2.67,5.96-1.34,10.62,3.19,12.65,4.01,1.8,7.42.64,9.09-2.86l-4.45-2c-1.09-.49-1.41-1.33-.92-2.42l.54-1.2c.49-1.09,1.33-1.41,2.42-.92l8.59,3.86c1.09.49,1.41,1.33.92,2.42l-.86,1.92c-3.37,7.5-10.55,9.75-17.75,6.52-8.03-3.61-10.95-11.64-6.9-20.66,4.15-9.24,12.39-12.07,19.92-8.69,5.72,2.57,8.88,7.73,8.29,13.05-.14,1.29-1.13,1.7-2.3,1.18l-2.83-1.27c-.96-.43-1.28-1.11-1.35-2.18Z"/>
    <path class="cls-14" d="m697.24,404.48c-7.6-3.41-10.95-11.35-6.78-20.64,4.19-9.33,12.32-12.06,19.92-8.65,7.56,3.39,10.96,11.31,6.78,20.64-4.19,9.33-12.36,12.05-19.92,8.65Zm2.39-5.33c4.37,1.96,8.71-.02,11.42-6.06,2.71-6.04,1.31-10.6-3.06-12.56-4.38-1.97-8.71.02-11.42,6.06-2.71,6.04-1.33,10.59,3.06,12.56Z"/>
  </g>
  <g>
    <path class="cls-14" d="m766.13,502.61l2.49,1.57c1.01.64,1.21,1.52.57,2.53l-5.91,9.35,11.34,7.17,5.91-9.35c.64-1.01,1.52-1.21,2.53-.57l2.48,1.57c1.01.64,1.21,1.52.57,2.53l-14.74,23.32c-.64,1.01-1.52,1.21-2.53.57l-2.48-1.57c-1.01-.63-1.21-1.52-.57-2.53l5.92-9.36-11.34-7.17-5.92,9.37c-.64,1.01-1.52,1.21-2.53.57l-2.49-1.57c-1.01-.63-1.21-1.52-.57-2.53l14.74-23.32c.64-1.01,1.52-1.21,2.53-.57Z"/>
    <path class="cls-14" d="m777.45,538.99c2.8-4.42,7.15-3.51,11.3-1.4,3.66,1.84,5.12,2.53,5.92,1.25l.05-.08c1.03-1.62.55-3.24-1.32-4.43-1.35-.86-2.61-1.02-3.66-.69-1.01.34-1.7.46-2.53-.17l-1.92-1.45c-1.04-.78-1.16-1.87-.06-2.56,2.93-1.83,6.75-1.63,10.73.88,4.41,2.79,7.15,7.3,4.17,12.02l-7.47,11.81c-.64,1.01-1.52,1.2-2.53.57l-2.12-1.34c-1.01-.64-1.24-1.47-.67-2.36l.86-1.37-.15-.1c-2.13,1.23-4.84,1.31-7.76-.54-3.78-2.39-5.32-6.14-2.84-10.06Zm6.81,7.27c2.41,1.53,5.13,1.02,6.44-1.05l1.33-2.1c-.93.02-3.08-.93-4.38-1.52-2.11-.95-3.86-1-4.84.55-.95,1.51-.24,3.06,1.45,4.13Z"/>
    <path class="cls-14" d="m799.91,560.93l-2.4-1.52c-1.01-.64-1.21-1.52-.57-2.53l10.57-16.72c.64-1.01,1.52-1.21,2.53-.57l2.14,1.35c1.01.64,1.21,1.52.57,2.53l-1.23,1.95.23.15c2.35-1.75,5.39-1.84,8.33.01,4.13,2.61,5.04,7.16,2.12,11.78l-7,11.07c-.64,1.01-1.52,1.21-2.53.57l-2.4-1.52c-1.01-.64-1.21-1.52-.57-2.53l6.38-10.09c1.55-2.42,1.13-4.7-1.08-6.09-2.22-1.4-4.68-.87-6.31,1.68l-6.26,9.91c-.64,1.01-1.52,1.21-2.53.57Z"/>
    <path class="cls-14" d="m816.53,576.94c.09-1.29,1.14-1.66,2.3-1.13l2.27,1.04c.94.43,1.17,1.08,1.37,2.11.22,1.13,1.01,2.32,2.67,3.37,2.39,1.51,4.8,1.55,6.52-1.17l2.29-3.62-.23-.15c-1.76,1.18-4.53,1.65-7.69-.35-4.46-2.82-6.09-8.15-1.93-14.74,4.26-6.75,10.08-7.8,14.42-5.05,3.32,2.1,3.68,5.09,3.4,7.17l.21.13,1.12-1.78c.64-1.01,1.52-1.21,2.53-.57l2.36,1.49c1.01.64,1.21,1.52.57,2.53l-11.67,18.46c-3.2,5.07-8.86,5.1-14.52,1.53-4.37-2.76-6.2-6.18-5.99-9.26Zm13.85-2.92c2.64,1.67,5.47.57,7.68-2.93,2.19-3.47,2.12-6.67-.55-8.36-2.72-1.72-5.66-.27-7.79,3.09-2.16,3.42-2.04,6.49.65,8.19Z"/>
    <path class="cls-14" d="m844.12,581.13c2.8-4.42,7.15-3.51,11.3-1.4,3.66,1.84,5.12,2.53,5.92,1.25l.05-.08c1.03-1.62.55-3.24-1.32-4.42-1.35-.86-2.61-1.02-3.66-.69-1.01.34-1.7.46-2.53-.17l-1.92-1.45c-1.04-.78-1.16-1.87-.06-2.56,2.93-1.83,6.75-1.63,10.73.88,4.41,2.79,7.15,7.3,4.17,12.02l-7.47,11.81c-.64,1.01-1.52,1.21-2.53.57l-2.12-1.34c-1.01-.64-1.24-1.47-.67-2.36l.86-1.37-.15-.1c-2.13,1.23-4.84,1.31-7.76-.54-3.78-2.39-5.32-6.14-2.84-10.07Zm6.81,7.27c2.41,1.52,5.13,1.02,6.44-1.05l1.33-2.1c-.94.02-3.08-.93-4.38-1.52-2.11-.95-3.86-1-4.84.55-.95,1.51-.24,3.06,1.45,4.13Z"/>
    <path class="cls-14" d="m876.69,581.74l2.23,1.41c1.01.64,1.21,1.52.57,2.53l-1.21,1.91.21.13c2.27-1.99,4.91-2.13,7.12-.73.09.06.19.12.29.2.93.64,1.01,1.58.4,2.53l-1.12,1.77c-.67,1.06-1.38,1.27-2.06.72-.37-.3-.76-.59-1.12-.82-2.42-1.53-5.27-.98-6.81,1.46l-6.11,9.66c-.64,1.01-1.52,1.21-2.53.57l-2.4-1.52c-1.01-.64-1.21-1.52-.57-2.53l10.57-16.71c.64-1.01,1.52-1.21,2.53-.57Z"/>
    <path class="cls-14" d="m893.16,607.75l-8.95-5.66c-1.01-.64-1.21-1.52-.57-2.53l.8-1.26c.64-1.01,1.52-1.21,2.53-.57l8.95,5.66c1.01.64,1.21,1.52.57,2.53l-.8,1.26c-.64,1.01-1.52,1.21-2.53.57Z"/>
    <path class="cls-14" d="m912.26,594.98l2.49,1.57c1.01.64,1.21,1.52.57,2.53l-6.38,10.1.35.22,15.56-5.2c.92-.31,1.65-.22,2.47.3l3.07,1.94c1.33.84,1.2,1.97-.31,2.46l-14.51,4.73.6,18.18c.05,1.49-.91,2.04-2.18,1.24l-3.21-2.03c-.84-.53-1.22-1.18-1.24-2.17l-.33-14.02-4.87,1.62-3.77,5.96c-.64,1.01-1.52,1.21-2.53.57l-2.49-1.57c-1.01-.63-1.21-1.52-.57-2.53l14.74-23.32c.64-1.01,1.52-1.2,2.53-.57Z"/>
  </g>
  <g>
    <path class="cls-14" d="m322.05,761.13l2.24-1.97c.71-.63,1.43-.68,2.22-.12l14.64,10.33.17-.15-8.09-16.12c-.43-.85-.29-1.56.42-2.18l1.91-1.69c.7-.62,1.43-.68,2.22-.14l14.99,10.09.18-.16-8.44-15.85c-.45-.85-.31-1.55.4-2.18l2.24-1.97c.85-.75,1.68-.59,2.18.46l10.69,22.49c.41.84.26,1.55-.45,2.17l-2.1,1.85c-.7.62-1.41.68-2.21.17l-14.39-9.12-.16.14,7.25,15.42c.4.86.26,1.55-.45,2.17l-2.1,1.85c-.7.62-1.43.68-2.21.17l-20.96-13.44c-.97-.62-1.03-1.47-.18-2.22Z"/>
    <path class="cls-14" d="m359.72,750.61c-4.14-4.7-4.04-10.44.44-14.39,4.03-3.55,9.41-3.75,13.97,1.43.66.75.61,1.53-.17,2.21l-9.18,8.09h0c2,2.28,4.57,2.5,6.68.64,1.02-.9,1.59-1.97,1.6-3.08,0-.91.09-1.51.79-2.06l1.66-1.27c.9-.68,1.75-.66,2.04.21,1.01,3.05-.1,6.52-3.39,9.41-4.69,4.13-10.21,3.64-14.46-1.19Zm9.15-10.92c-1.61-1.81-4.03-2-5.86-.38-1.87,1.65-1.97,4.2-.53,6.01l6.39-5.63Z"/>
    <path class="cls-14" d="m366.48,723.71c-1.03-1.17-.85-3.04.4-4.14,1.26-1.11,3.14-1.06,4.17.11,1.04,1.18.86,3.05-.4,4.16-1.25,1.1-3.13,1.05-4.17-.13Zm4.82,5.15c-.68-.77-.63-1.56.14-2.24l1.84-1.62c.77-.68,1.56-.63,2.24.14l11.32,12.85c.68.77.63,1.56-.14,2.24l-1.84,1.62c-.77.68-1.56.63-2.24-.14l-11.32-12.85Z"/>
    <path class="cls-14" d="m384.01,729.12c-4.61-5.23-4.08-10.32-.73-13.27,2.55-2.25,5.1-1.8,6.76-1.06l.13-.11-5.68-6.44c-.68-.77-.63-1.56.14-2.24l1.83-1.62c.77-.68,1.56-.63,2.24.14l15.79,17.92c.68.77.63,1.56-.14,2.24l-1.78,1.57c-.77.68-1.56.63-2.24-.14l-1.1-1.25-.18.16c.53,1.79.5,4.33-1.96,6.5-3.47,3.06-8.6,2.7-13.09-2.4Zm11.46-2.14c2.03-1.79,1.63-4.61-.76-7.32-2.39-2.72-5.07-3.44-7.13-1.63-2.09,1.84-1.6,4.64.72,7.27,2.34,2.66,5.1,3.51,7.17,1.68Z"/>
    <path class="cls-14" d="m401.74,713.59c-4.14-4.7-4.04-10.44.44-14.39,4.02-3.55,9.41-3.75,13.97,1.43.66.75.61,1.53-.17,2.21l-9.18,8.09h0c2,2.28,4.57,2.5,6.68.64,1.02-.9,1.59-1.97,1.6-3.08,0-.91.09-1.51.79-2.06l1.66-1.27c.9-.68,1.75-.66,2.04.21,1.01,3.05-.1,6.52-3.38,9.41-4.69,4.13-10.21,3.64-14.46-1.18Zm9.15-10.92c-1.61-1.81-4.03-2-5.86-.38-1.87,1.65-1.97,4.2-.53,6.01l6.39-5.63Z"/>
  </g>
  <g>
    <path class="cls-13" d="m354.99,482.66l5.5-4.84c3.72-3.27,7.89-2.87,10.75.38,2.88,3.27,2.67,7.44-1.09,10.76l-2.91,2.56,3.83,4.35c.55.62.51,1.25-.11,1.8l-1.54,1.36c-.62.55-1.25.51-1.8-.11l-12.73-14.45c-.55-.62-.51-1.25.11-1.8Zm12.15,4.01c1.98-1.75,1.96-3.72.53-5.34-1.44-1.63-3.36-1.87-5.36-.1l-2.33,2.06,4.81,5.46,2.35-2.07Z"/>
    <path class="cls-13" d="m379.04,484.45c-2.42-2.74-.95-5.48,1.28-7.84,1.95-2.09,2.7-2.93,2-3.72l-.04-.05c-.89-1.01-2.06-1.01-3.22.01-.84.74-1.19,1.55-1.18,2.32.03.74-.02,1.23-.61,1.66l-1.35,1c-.73.54-1.48.41-1.73-.46-.65-2.32.23-4.85,2.69-7.01,2.73-2.41,6.29-3.36,8.87-.44l6.45,7.32c.55.62.51,1.25-.11,1.8l-1.31,1.16c-.62.55-1.23.54-1.71-.01l-.75-.85-.1.08c.41,1.67-.07,3.5-1.88,5.09-2.34,2.06-5.16,2.36-7.3-.07Zm6.21-3.14c1.49-1.32,1.69-3.24.56-4.52l-1.15-1.3c-.17.63-1.23,1.88-1.88,2.63-1.05,1.22-1.43,2.39-.58,3.35.82.94,2,.76,3.05-.16Z"/>
    <path class="cls-13" d="m385.84,462.74l1.38-1.22c.62-.55,1.25-.51,1.8.11l1.04,1.18.13-.11c-.89-1.91-.47-3.71.91-4.92.06-.05.12-.11.19-.15.61-.5,1.25-.37,1.77.23l.96,1.09c.58.66.58,1.18.08,1.52-.28.19-.55.39-.77.59-1.5,1.32-1.69,3.33-.36,4.85l5.27,5.99c.55.62.51,1.25-.11,1.8l-1.49,1.31c-.62.55-1.25.51-1.8-.11l-9.13-10.36c-.55-.62-.51-1.25.11-1.8Z"/>
    <path class="cls-13" d="m391.44,450.54l1.49-1.31c.62-.55,1.25-.51,1.8.11l6.86,7.79.18-.16-.16-7.17c-.02-.67.19-1.14.7-1.58l1.65-1.45c.83-.73,1.56-.41,1.58.7l.1,7.27,9.09,2.28c1.02.25,1.2,1.01.41,1.71l-1.83,1.61c-.51.45-1.03.58-1.7.41l-6.75-1.75v1.86s2.59,2.94,2.59,2.94c.55.62.51,1.25-.11,1.8l-1.49,1.31c-.62.55-1.25.51-1.8-.11l-12.73-14.45c-.55-.62-.51-1.25.11-1.8Z"/>
    <path class="cls-13" d="m404.13,440.75c-.83-.94-.68-2.45.32-3.34,1.01-.89,2.53-.85,3.36.09.84.95.69,2.46-.32,3.35-1.01.89-2.52.84-3.36-.11Zm3.89,4.15c-.55-.62-.51-1.25.11-1.8l1.49-1.31c.62-.55,1.25-.51,1.8.11l9.13,10.36c.55.62.51,1.25-.11,1.8l-1.49,1.31c-.62.55-1.25.51-1.8-.11l-9.13-10.36Z"/>
    <path class="cls-13" d="m426.56,448.67l-1.49,1.31c-.62.55-1.25.51-1.8-.11l-9.13-10.36c-.55-.62-.51-1.25.11-1.8l1.33-1.17c.62-.55,1.25-.51,1.8.11l1.06,1.21.14-.13c-.71-1.92-.18-3.97,1.64-5.58,2.56-2.25,5.78-1.97,8.31.89l6.04,6.86c.55.62.51,1.25-.11,1.8l-1.49,1.31c-.62.55-1.25.51-1.8-.11l-5.51-6.25c-1.32-1.51-2.93-1.68-4.29-.48-1.37,1.21-1.5,2.97-.11,4.56l5.41,6.14c.55.62.51,1.25-.11,1.8Z"/>
    <path class="cls-13" d="m440.55,440.68c-.85-.32-.89-1.09-.3-1.76l1.14-1.32c.47-.54.96-.57,1.68-.5.8.07,1.75-.22,2.78-1.13,1.48-1.3,1.98-2.91.49-4.6l-1.98-2.25-.14.13c.45,1.41.22,3.36-1.74,5.08-2.77,2.44-6.65,2.48-10.25-1.6-3.68-4.18-3.25-8.28-.56-10.65,2.05-1.81,4.13-1.47,5.47-.87l.13-.11-.97-1.1c-.55-.62-.51-1.25.11-1.8l1.46-1.29c.62-.55,1.25-.51,1.8.11l10.08,11.44c2.77,3.14,1.68,6.93-1.83,10.03-2.71,2.39-5.35,2.94-7.38,2.2Zm.76-9.85c1.64-1.44,1.45-3.55-.45-5.72-1.89-2.15-4.05-2.73-5.71-1.27-1.69,1.49-1.29,3.74.54,5.82,1.87,2.12,3.95,2.64,5.62,1.17Z"/>
    <path class="cls-13" d="m452.23,415.13l-2.36-14.95c-.11-.69.07-1.19.59-1.65l2.62-2.31c.62-.55,1.25-.51,1.8.11l8.6,9.76,1.07-.94c.62-.55,1.25-.51,1.8.11l.75.86c.55.62.51,1.25-.11,1.8l-1.07.94,1.69,1.92c.55.62.51,1.25-.11,1.8l-1.39,1.23c-.62.55-1.25.51-1.8-.11l-1.69-1.92-6.9,6.08c-.62.55-1.25.51-1.8-.11l-.99-1.12c-.41-.46-.6-.88-.71-1.49Zm8.01-6.18l-6.12-6.94-.13.11,1.7,10.61.11.13,4.44-3.91Z"/>
  </g>
  <g>
    <path class="cls-13" d="m588.99,707.66l5.5-4.84c3.72-3.27,7.89-2.87,10.75.38,2.88,3.27,2.67,7.44-1.09,10.76l-2.91,2.56,3.83,4.35c.55.62.51,1.25-.11,1.8l-1.54,1.36c-.62.55-1.25.51-1.8-.11l-12.73-14.45c-.55-.62-.51-1.25.11-1.8Zm12.15,4.01c1.98-1.75,1.96-3.72.53-5.34-1.44-1.63-3.36-1.87-5.36-.1l-2.33,2.06,4.81,5.46,2.35-2.07Z"/>
    <path class="cls-13" d="m613.04,709.45c-2.42-2.74-.95-5.48,1.28-7.84,1.95-2.09,2.7-2.93,2-3.72l-.04-.05c-.89-1.01-2.07-1.01-3.22.01-.84.74-1.19,1.55-1.18,2.32.03.74-.02,1.23-.61,1.66l-1.35,1c-.73.54-1.48.41-1.73-.46-.65-2.32.23-4.85,2.69-7.01,2.73-2.41,6.29-3.36,8.87-.44l6.45,7.32c.55.62.51,1.25-.11,1.8l-1.31,1.16c-.62.55-1.23.54-1.71-.01l-.75-.85-.1.08c.41,1.67-.07,3.5-1.88,5.09-2.34,2.06-5.16,2.36-7.3-.07Zm6.21-3.14c1.49-1.32,1.69-3.24.56-4.52l-1.15-1.3c-.17.63-1.23,1.88-1.88,2.63-1.05,1.22-1.43,2.39-.58,3.35.82.94,2,.76,3.05-.16Z"/>
    <path class="cls-13" d="m619.84,687.74l1.38-1.22c.62-.55,1.25-.51,1.8.11l1.04,1.18.13-.11c-.89-1.91-.47-3.71.91-4.92.06-.05.12-.11.19-.15.61-.5,1.25-.37,1.77.23l.96,1.09c.58.66.58,1.18.08,1.52-.28.19-.55.39-.77.59-1.5,1.32-1.69,3.33-.36,4.85l5.27,5.99c.55.62.51,1.25-.11,1.8l-1.49,1.31c-.62.55-1.25.51-1.8-.11l-9.12-10.36c-.55-.62-.51-1.25.11-1.8Z"/>
    <path class="cls-13" d="m625.44,675.54l1.49-1.31c.62-.55,1.25-.51,1.8.11l6.86,7.79.18-.16-.16-7.17c-.02-.67.19-1.14.7-1.58l1.65-1.45c.83-.73,1.56-.41,1.58.7l.1,7.27,9.09,2.28c1.02.25,1.2,1.01.41,1.71l-1.83,1.61c-.51.45-1.03.58-1.7.41l-6.75-1.75v1.86s2.59,2.94,2.59,2.94c.55.62.51,1.25-.11,1.8l-1.49,1.31c-.62.55-1.25.51-1.8-.11l-12.73-14.45c-.55-.62-.51-1.25.11-1.8Z"/>
    <path class="cls-13" d="m638.13,665.75c-.83-.94-.68-2.45.32-3.34,1.01-.89,2.53-.85,3.36.09.84.95.69,2.46-.32,3.35-1.01.89-2.52.84-3.36-.11Zm3.89,4.15c-.55-.62-.51-1.25.11-1.8l1.49-1.31c.62-.55,1.25-.51,1.8.11l9.12,10.36c.55.62.51,1.25-.11,1.8l-1.49,1.31c-.62.55-1.25.51-1.8-.11l-9.12-10.36Z"/>
    <path class="cls-13" d="m660.56,673.67l-1.49,1.31c-.62.55-1.25.51-1.8-.11l-9.13-10.36c-.55-.62-.51-1.25.11-1.8l1.33-1.17c.62-.55,1.25-.51,1.8.11l1.06,1.21.14-.13c-.71-1.92-.18-3.97,1.64-5.58,2.56-2.25,5.78-1.97,8.31.89l6.04,6.86c.55.62.51,1.25-.11,1.8l-1.49,1.31c-.62.55-1.25.51-1.8-.11l-5.51-6.25c-1.32-1.51-2.93-1.68-4.29-.48-1.37,1.21-1.5,2.97-.11,4.56l5.41,6.14c.55.62.51,1.25-.11,1.8Z"/>
    <path class="cls-13" d="m674.55,665.68c-.85-.32-.89-1.09-.3-1.76l1.14-1.32c.47-.54.96-.57,1.68-.5.8.07,1.75-.22,2.78-1.13,1.48-1.3,1.98-2.91.49-4.6l-1.98-2.25-.14.13c.45,1.41.22,3.36-1.74,5.08-2.76,2.44-6.65,2.48-10.25-1.6-3.68-4.18-3.25-8.28-.56-10.65,2.05-1.81,4.13-1.47,5.46-.87l.13-.11-.97-1.1c-.55-.62-.51-1.25.11-1.8l1.46-1.29c.62-.55,1.25-.51,1.8.11l10.08,11.44c2.77,3.14,1.68,6.93-1.83,10.03-2.71,2.39-5.36,2.94-7.38,2.2Zm.76-9.85c1.64-1.44,1.45-3.55-.45-5.72-1.89-2.15-4.05-2.73-5.71-1.27-1.69,1.49-1.29,3.74.54,5.82,1.87,2.12,3.95,2.64,5.62,1.17Z"/>
    <path class="cls-13" d="m688.33,642.77c-.71-.5-.64-1.22,0-1.79l1.63-1.44c.56-.49,1.04-.4,1.75-.14,1.07.38,2.41.02,3.57-1,1.58-1.39,1.91-3.28.76-4.57-1.15-1.33-3.13-1.23-4.98.4l-.57.5c-.62.55-1.25.51-1.8-.11l-.55-.62c-.55-.62-.51-1.25.11-1.8l.57-.5c1.57-1.39,1.9-3.22.76-4.5-1.08-1.24-2.76-1.26-4.16-.03-1.08.95-1.58,2.23-1.29,3.35.19.75.22,1.24-.34,1.74l-1.45,1.27c-.65.57-1.38.55-1.78-.22-1.45-2.77-.48-6.31,2.46-8.9,3.39-2.99,7.44-2.95,9.71-.36,1.63,1.83,1.5,4.24-.04,6.18l.11.13c2.67-1.82,5.25-1.5,7.04.54,2.47,2.79,1.62,7.13-2.05,10.37-3.16,2.78-6.87,3.32-9.47,1.51Z"/>
  </g>
  <g>
    <path class="cls-13" d="m591.35,243.5l-1.48-.24c-.58-.09-.96-.36-1.21-.91l-5.89-12.32-.14-.02-1.71,10.69c-.11.71-.56,1.04-1.27.92l-1.77-.28c-.71-.11-1.04-.56-.92-1.27l2.65-16.54c.11-.71.56-1.04,1.27-.92l1.53.24c.58.09.96.37,1.21.91l5.83,12.3.17.03,1.71-10.68c.11-.71.56-1.04,1.27-.92l1.75.28c.71.11,1.04.56.92,1.27l-2.65,16.54c-.11.71-.56,1.04-1.27.92Z"/>
    <path class="cls-13" d="m596.2,237.13c.69-4.33,3.84-6.84,7.98-6.18,3.71.59,6.23,3.42,5.46,8.19-.11.7-.56,1.01-1.27.89l-8.47-1.36h0c-.34,2.1.69,3.59,2.64,3.9.94.15,1.78-.02,2.38-.51.49-.41.86-.62,1.47-.49l1.43.33c.77.18,1.13.65.79,1.2-1.2,1.91-3.57,2.85-6.6,2.37-4.33-.69-6.52-3.9-5.81-8.35Zm9.99.08c.26-1.67-.72-3.07-2.41-3.34-1.73-.28-3.15.81-3.49,2.4l5.9.95Z"/>
    <path class="cls-13" d="m613.85,247.1l-1.7-.27c-.71-.11-1.04-.56-.92-1.27l2.65-16.54c.11-.71.56-1.04,1.27-.92l1.7.27c.71.11,1.04.56.92,1.27l-2.65,16.54c-.11.71-.56,1.04-1.27.92Z"/>
    <path class="cls-13" d="m627.5,238.37c-.31-.56-.93-.99-1.83-1.14-1.21-.19-2.25.2-2.37,1.05-.12.68.3,1.2,1.56,1.69l2.46.92c2.64.99,3.77,2.42,3.45,4.45-.45,2.77-3.36,4.21-7,3.63-3.15-.5-5.08-2.02-5.56-4.15-.18-.76.35-1.17,1.11-1.09l1.69.18c.64.07.88.42,1.17,1,.34.67,1.04,1.09,2.04,1.25,1.36.22,2.36-.23,2.51-1.06.09-.71-.39-1.25-1.58-1.69l-2.36-.87c-2.66-.99-3.76-2.56-3.42-4.67.43-2.71,3.06-3.99,6.66-3.42,2.98.48,4.75,1.92,5.2,3.93.17.77-.34,1.17-1.11,1.1l-1.46-.14c-.63-.06-.86-.4-1.18-.98Z"/>
    <path class="cls-13" d="m633.08,243.03c.7-4.35,3.82-6.84,8.08-6.15,4.26.68,6.45,4.02,5.75,8.37-.69,4.33-3.81,6.82-8.08,6.13-4.26-.68-6.45-4.02-5.75-8.35Zm6.25,5.33c1.93.31,3.22-1.33,3.62-3.78.39-2.45-.32-4.42-2.25-4.73-1.97-.32-3.26,1.33-3.65,3.79-.39,2.45.32,4.41,2.29,4.73Z"/>
    <path class="cls-13" d="m651.14,253.07l-1.7-.27c-.71-.11-1.04-.56-.92-1.27l1.9-11.85c.11-.71.56-1.04,1.27-.92l1.52.24c.71.11,1.04.56.92,1.27l-.22,1.38.17.03c.89-1.54,2.57-2.32,4.65-1.99,2.93.47,4.52,2.79,4,6.06l-1.26,7.85c-.11.71-.56,1.04-1.27.92l-1.7-.27c-.71-.11-1.04-.56-.92-1.27l1.15-7.15c.28-1.72-.49-2.89-2.06-3.14-1.57-.25-2.82.64-3.12,2.45l-1.12,7.02c-.11.71-.56,1.04-1.27.92Z"/>
    <path class="cls-13" d="m678.5,239.12l2.93,12.5.22.04,6.69-10.96c.33-.54.79-.75,1.41-.65l2.86.46c.71.11,1.04.56.92,1.27l-2.65,16.54c-.11.71-.56,1.04-1.27.92l-1.65-.26c-.71-.11-1.04-.56-.92-1.27l1.78-11.09-.16-.03-6.3,10.52c-.33.55-.78.76-1.41.66l-.77-.12c-.63-.1-.99-.44-1.12-1.06l-2.7-12.01-.16-.03-1.78,11.14c-.11.71-.56,1.04-1.27.92l-1.65-.26c-.71-.12-1.04-.56-.92-1.27l2.65-16.54c.11-.71.56-1.04,1.27-.92l2.86.46c.62.1.99.44,1.13,1.05Z"/>
    <path class="cls-13" d="m693.87,255.9c.5-3.14,3.15-3.67,5.97-3.48,2.48.15,3.46.19,3.6-.72v-.05c.19-1.15-.46-1.94-1.78-2.15-.96-.15-1.7.06-2.21.49-.48.43-.84.66-1.45.51l-1.42-.35c-.77-.19-1.1-.77-.65-1.42,1.19-1.72,3.38-2.53,6.19-2.07,3.13.5,5.74,2.36,5.2,5.71l-1.34,8.38c-.11.71-.56,1.04-1.27.92l-1.5-.24c-.71-.11-1.04-.52-.94-1.15l.16-.97-.11-.02c-.89,1.2-2.38,1.89-4.46,1.56-2.68-.43-4.44-2.16-3.99-4.94Zm5.54,2.43c1.71.27,3.11-.66,3.34-2.13l.24-1.49c-.52.24-1.94.21-2.81.2-1.4-.03-2.39.37-2.57,1.46-.17,1.07.6,1.77,1.8,1.96Z"/>
    <path class="cls-13" d="m711.65,262.77l-1.7-.27c-.71-.11-1.04-.56-.92-1.27l1.9-11.85c.11-.71.56-1.04,1.27-.92l1.52.24c.71.11,1.04.56.92,1.27l-.22,1.38.17.03c.89-1.54,2.57-2.32,4.65-1.99,2.93.47,4.52,2.79,4,6.06l-1.26,7.85c-.11.71-.56,1.04-1.27.92l-1.7-.27c-.71-.11-1.04-.56-.92-1.27l1.15-7.15c.28-1.72-.49-2.89-2.06-3.14-1.57-.25-2.82.64-3.12,2.45l-1.12,7.02c-.11.71-.56,1.04-1.27.92Z"/>
    <path class="cls-13" d="m725.48,257.8c.77-4.83,3.76-6.81,6.85-6.31,2.35.38,3.25,1.96,3.59,3.18l.12.02.95-5.95c.11-.71.56-1.04,1.27-.92l1.69.27c.71.11,1.04.56.92,1.27l-2.65,16.54c-.11.71-.56,1.04-1.27.92l-1.65-.26c-.71-.11-1.04-.56-.92-1.27l.18-1.15-.16-.03c-.73,1.08-2.12,2.2-4.39,1.84-3.2-.51-5.29-3.45-4.54-8.15Zm6.27,5.24c1.87.3,3.22-1.17,3.62-3.68.4-2.5-.4-4.28-2.29-4.58-1.93-.31-3.22,1.2-3.61,3.63-.39,2.45.38,4.32,2.29,4.62Z"/>
    <path class="cls-13" d="m741.79,260.46c.69-4.33,3.84-6.84,7.98-6.18,3.71.59,6.23,3.42,5.46,8.19-.11.7-.56,1.01-1.27.89l-8.47-1.36h0c-.34,2.1.69,3.59,2.64,3.9.94.15,1.78-.02,2.38-.51.49-.41.86-.62,1.47-.49l1.43.33c.77.18,1.13.65.79,1.2-1.2,1.91-3.57,2.85-6.6,2.37-4.33-.69-6.52-3.9-5.81-8.35Zm9.99.08c.26-1.67-.72-3.07-2.41-3.34-1.73-.28-3.15.81-3.49,2.4l5.9.95Z"/>
    <path class="cls-13" d="m759.44,270.43l-1.7-.27c-.71-.11-1.04-.56-.92-1.27l2.65-16.54c.11-.71.56-1.04,1.27-.92l1.7.27c.71.11,1.04.56.92,1.27l-2.65,16.54c-.11.71-.56,1.04-1.27.92Z"/>
    <path class="cls-13" d="m763.62,267.07c.5-3.14,3.15-3.67,5.97-3.48,2.48.15,3.46.19,3.6-.72v-.05c.19-1.15-.46-1.94-1.78-2.15-.96-.15-1.7.06-2.21.49-.48.43-.84.66-1.45.51l-1.42-.35c-.77-.19-1.1-.77-.65-1.42,1.2-1.72,3.38-2.53,6.2-2.07,3.13.5,5.74,2.36,5.2,5.71l-1.34,8.38c-.11.71-.56,1.04-1.27.92l-1.5-.24c-.71-.12-1.04-.52-.94-1.16l.16-.97-.11-.02c-.89,1.2-2.38,1.89-4.46,1.55-2.68-.43-4.44-2.16-3.99-4.94Zm5.54,2.43c1.71.27,3.11-.66,3.34-2.13l.24-1.49c-.52.24-1.94.21-2.81.2-1.4-.03-2.4.37-2.57,1.46-.17,1.07.6,1.76,1.8,1.96Z"/>
  </g>
  <g>
    <path class="cls-13" d="m576.68,871.75l-5.17,10.45.13.15,11.02-3.81c.54-.19.98-.07,1.36.36l1.74,1.97c.43.49.4.99-.09,1.42l-11.4,10.05c-.49.43-.99.4-1.42-.09l-1-1.14c-.43-.49-.4-.99.09-1.42l7.65-6.74-.09-.11-10.49,3.73c-.55.19-.98.08-1.37-.35l-.47-.53c-.38-.43-.44-.88-.17-1.39l5.04-9.97-.09-.11-7.68,6.77c-.49.43-.99.4-1.42-.09l-1-1.13c-.43-.49-.4-.99.09-1.42l11.41-10.05c.49-.43.99-.4,1.42.09l1.74,1.97c.38.43.44.88.19,1.39Z"/>
    <path class="cls-13" d="m577.74,892.35c2.16-1.91,4.32-.75,6.19,1.01,1.65,1.54,2.31,2.13,2.94,1.58l.04-.03c.79-.7.79-1.63-.01-2.54-.58-.66-1.22-.94-1.83-.93-.59.02-.97-.02-1.31-.48l-.79-1.06c-.43-.58-.33-1.17.37-1.37,1.83-.52,3.82.18,5.54,2.12,1.9,2.16,2.65,4.97.34,7l-5.78,5.09c-.49.43-.99.4-1.42-.09l-.91-1.03c-.43-.49-.43-.97,0-1.35l.67-.59-.07-.08c-1.32.32-2.76-.06-4.02-1.49-1.63-1.85-1.86-4.07.05-5.76Zm2.48,4.9c1.04,1.18,2.55,1.33,3.57.44l1.03-.91c-.5-.13-1.48-.97-2.08-1.49-.97-.83-1.89-1.12-2.65-.46-.74.65-.6,1.58.13,2.41Z"/>
    <path class="cls-13" d="m582.78,907.41c.25-.67.86-.7,1.39-.24l1.04.9c.43.37.45.76.4,1.33-.06.63.18,1.38.89,2.19,1.03,1.17,2.3,1.56,3.63.39l1.77-1.56-.1-.11c-1.11.35-2.65.17-4.01-1.37-1.92-2.18-1.96-5.25,1.26-8.09,3.3-2.91,6.54-2.57,8.41-.44,1.43,1.62,1.16,3.26.69,4.31l.09.1.87-.77c.49-.43.99-.4,1.42.09l1.02,1.15c.43.49.4.99-.09,1.42l-9.03,7.95c-2.48,2.18-5.48,1.33-7.92-1.44-1.88-2.14-2.32-4.23-1.73-5.82Zm7.78.6c1.14,1.29,2.8,1.15,4.51-.36,1.7-1.5,2.16-3.2,1.01-4.51-1.17-1.33-2.95-1.02-4.6.43-1.67,1.47-2.09,3.12-.92,4.43Z"/>
    <path class="cls-13" d="m598.92,912.11c3.33-2.93,6.57-2.59,8.44-.47,1.43,1.62,1.15,3.25.68,4.3l.07.08,4.1-3.61c.49-.43.99-.4,1.42.09l1.03,1.17c.43.49.4.99-.09,1.42l-11.41,10.05c-.49.43-.99.4-1.42-.09l-1-1.14c-.43-.49-.4-.99.09-1.42l.79-.7-.1-.11c-1.14.34-2.75.32-4.13-1.24-1.95-2.21-1.72-5.47,1.53-8.33Zm1.36,7.29c1.14,1.29,2.93,1.04,4.66-.49,1.73-1.52,2.19-3.23,1.04-4.53-1.17-1.33-2.95-1.02-4.63.46-1.69,1.49-2.23,3.24-1.07,4.56Z"/>
    <path class="cls-13" d="m606.65,925.17c2.16-1.91,4.32-.75,6.19,1.01,1.65,1.54,2.31,2.13,2.94,1.58l.04-.03c.79-.7.79-1.63-.01-2.54-.58-.66-1.22-.94-1.83-.93-.59.02-.97-.02-1.31-.48l-.79-1.06c-.43-.58-.32-1.17.37-1.37,1.83-.52,3.83.18,5.54,2.12,1.9,2.16,2.65,4.97.34,7l-5.78,5.09c-.49.43-.99.4-1.42-.09l-.91-1.03c-.43-.49-.43-.97,0-1.35l.67-.59-.07-.08c-1.32.32-2.76-.06-4.02-1.49-1.63-1.85-1.86-4.07.06-5.76Zm2.48,4.9c1.04,1.18,2.55,1.33,3.57.44l1.03-.91c-.5-.13-1.48-.97-2.08-1.49-.97-.83-1.89-1.12-2.65-.46-.74.65-.6,1.58.13,2.41Z"/>
    <path class="cls-13" d="m615.12,940.24l-1.03-1.17c-.43-.49-.4-.99.09-1.42l11.41-10.05c.49-.43.99-.4,1.42.09l1.03,1.17c.43.49.4.99-.09,1.42l-11.41,10.05c-.49.43-.99.4-1.42-.09Z"/>
    <path class="cls-13" d="m622.13,938.52c2.99-2.63,6.64-2.57,9.16.28,2.26,2.56,2.39,5.99-.91,8.89-.48.42-.97.39-1.41-.11l-5.15-5.84h0c-1.45,1.28-1.58,2.92-.4,4.26.57.65,1.25,1.01,1.96,1.02.58,0,.96.06,1.31.51l.81,1.06c.44.57.42,1.11-.13,1.3-1.94.65-4.15-.07-5.99-2.15-2.63-2.98-2.32-6.5.75-9.2Zm6.95,5.82c1.15-1.02,1.27-2.56.24-3.73-1.05-1.19-2.67-1.25-3.83-.34l3.58,4.07Z"/>
    <path class="cls-13" d="m628.72,955.67l-1.03-1.17c-.43-.49-.4-.99.09-1.42l8.17-7.2c.49-.43.99-.4,1.42.09l.92,1.05c.43.49.4.99-.09,1.42l-.95.84.1.11c1.51-.56,3.14-.14,4.4,1.3,1.78,2.02,1.56,4.57-.7,6.56l-5.41,4.77c-.49.43-.99.4-1.42-.09l-1.03-1.17c-.43-.49-.4-.99.09-1.42l4.93-4.35c1.19-1.04,1.33-2.31.38-3.39-.96-1.09-2.34-1.19-3.6-.09l-4.84,4.27c-.49.43-.99.4-1.42-.09Z"/>
    <path class="cls-13" d="m639.05,961.94c2.16-1.91,4.32-.75,6.19,1.01,1.65,1.54,2.31,2.13,2.94,1.58l.04-.03c.79-.7.79-1.63-.01-2.54-.58-.66-1.22-.94-1.83-.93-.58.02-.97-.02-1.31-.48l-.79-1.06c-.43-.58-.33-1.17.37-1.37,1.83-.51,3.83.18,5.54,2.13,1.9,2.16,2.65,4.97.34,7l-5.78,5.09c-.49.43-.99.4-1.42-.09l-.91-1.03c-.43-.49-.43-.97,0-1.35l.67-.59-.07-.08c-1.32.32-2.76-.05-4.02-1.49-1.63-1.85-1.86-4.07.05-5.76Zm2.48,4.9c1.04,1.18,2.55,1.33,3.57.44l1.03-.91c-.5-.13-1.48-.97-2.08-1.48-.97-.83-1.89-1.12-2.65-.46-.74.65-.6,1.58.13,2.41Z"/>
  </g>
  <g>
    <path class="cls-14" d="m469.81,811.55h7.05c4.77,0,7.53,2.94,7.53,7.12s-2.81,7.08-7.64,7.08h-3.73v5.58c0,.8-.43,1.23-1.23,1.23h-1.98c-.8,0-1.23-.43-1.23-1.23v-18.54c0-.8.43-1.23,1.23-1.23Zm6.22,10.63c2.54,0,3.78-1.44,3.78-3.52s-1.24-3.49-3.8-3.49h-2.99v7h3.01Z"/>
    <path class="cls-14" d="m486.3,824.75c0-4.86,3-8.15,7.64-8.15,4.16,0,7.4,2.65,7.4,8,0,.78-.43,1.2-1.23,1.2h-9.5c0,2.36,1.38,3.8,3.57,3.8,1.06,0,1.94-.33,2.51-.97.46-.53.83-.83,1.52-.79l1.62.11c.87.06,1.35.51,1.08,1.17-.97,2.3-3.4,3.74-6.8,3.74-4.85,0-7.81-3.12-7.81-8.11Zm10.93-1.66c-.01-1.88-1.32-3.23-3.22-3.23s-3.3,1.44-3.39,3.23h6.61Z"/>
    <path class="cls-14" d="m507.33,832.55h-1.91c-.8,0-1.23-.43-1.23-1.23v-13.29c0-.8.43-1.23,1.23-1.23h1.7c.8,0,1.23.43,1.23,1.23v1.55h.18c.71-1.84,2.4-2.98,4.74-2.98,3.28,0,5.43,2.26,5.43,5.93v8.8c0,.8-.43,1.23-1.23,1.23h-1.91c-.8,0-1.23-.43-1.23-1.23v-8.02c.01-1.93-1.05-3.08-2.8-3.08s-2.97,1.19-2.98,3.22v7.88c0,.8-.43,1.23-1.23,1.23Z"/>
    <path class="cls-14" d="m529.29,820.08h-1.73v7.63c0,1.21.6,1.54,1.48,1.54h.1c.66-.03,1.06.18,1.19.83l.24,1.1c.16.78-.14,1.33-.92,1.47-.34.06-.75.1-1.2.12-3.17.13-5.27-1.39-5.25-4.48v-8.2h-.92c-.8,0-1.23-.43-1.23-1.23v-.82c0-.8.43-1.23,1.23-1.23h.92v-2.54c0-.8.43-1.23,1.23-1.23h1.91c.8,0,1.23.43,1.23,1.23v2.54h1.73c.8,0,1.23.43,1.23,1.23v.82c0,.8-.43,1.23-1.23,1.23Z"/>
    <path class="cls-14" d="m532.63,828.15c0-3.52,2.8-4.56,5.92-4.85,2.74-.27,3.81-.4,3.81-1.42v-.06c0-1.29-.85-2.04-2.34-2.04-1.08,0-1.85.36-2.33.92-.45.55-.8.87-1.5.81l-1.61-.13c-.87-.07-1.33-.65-.95-1.44,1-2.09,3.25-3.35,6.41-3.35,3.51,0,6.69,1.58,6.69,5.33v9.39c0,.8-.43,1.23-1.23,1.23h-1.68c-.8,0-1.23-.39-1.23-1.1v-1.09h-.12c-.77,1.47-2.28,2.48-4.6,2.48-3,0-5.23-1.58-5.23-4.7Zm6.48,1.68c1.92,0,3.28-1.26,3.28-2.91v-1.67c-.52.35-2.08.57-3.04.71-1.54.22-2.55.82-2.55,2.05s.96,1.83,2.31,1.83Z"/>
  </g>
  <g>
    <path class="cls-14" d="m884.1,179l.55,1.9c.22.77-.07,1.3-.84,1.52l-15.47,4.47,2.16,7.47c.22.77-.07,1.3-.84,1.52l-1.15.33c-.77.22-1.3-.07-1.52-.84l-3.05-10.55c-.22-.77.07-1.3.84-1.52l17.81-5.15c.77-.22,1.3.07,1.52.84Z"/>
    <path class="cls-14" d="m875.44,196.54c4.67-1.35,8.67.62,9.95,5.07,1.16,4-.48,7.85-5.63,9.33-.75.22-1.27-.08-1.49-.85l-2.64-9.12h-.01c-2.26.65-3.26,2.39-2.65,4.48.29,1.01.85,1.77,1.63,2.14.64.29,1.03.57,1.18,1.24l.34,1.59c.18.85-.12,1.44-.82,1.36-2.48-.3-4.54-2.23-5.48-5.49-1.35-4.66.82-8.37,5.62-9.76Zm4.63,10.04c1.8-.53,2.73-2.17,2.21-3.99-.54-1.86-2.3-2.77-4.05-2.36l1.84,6.35Z"/>
    <path class="cls-14" d="m875.04,223.27l-.78-2.7c-.2-.69-.02-1.21.57-1.62l11.53-8.19c.73-.52,1.38-.29,1.63.57l.57,1.96c.2.7,0,1.21-.61,1.61l-9,5.7.05.16h10.65c.74,0,1.17.34,1.38,1.04l.57,1.97c.25.87-.17,1.4-1.07,1.36l-14.12-.77c-.71-.04-1.15-.38-1.35-1.07Z"/>
    <path class="cls-14" d="m884.66,228.44c4.67-1.35,8.67.62,9.95,5.07,1.16,4-.49,7.85-5.63,9.33-.75.22-1.27-.08-1.49-.85l-2.64-9.12h-.01c-2.26.65-3.26,2.39-2.65,4.48.29,1.01.85,1.77,1.63,2.14.64.29,1.03.57,1.18,1.24l.34,1.59c.18.85-.12,1.44-.82,1.36-2.48-.3-4.54-2.23-5.48-5.49-1.35-4.66.82-8.37,5.62-9.76Zm4.63,10.04c1.8-.53,2.74-2.17,2.21-3.99-.54-1.86-2.3-2.77-4.04-2.36l1.84,6.35Z"/>
    <path class="cls-14" d="m883.01,250.81l-.53-1.83c-.22-.77.07-1.3.84-1.52l17.81-5.15c.77-.22,1.3.07,1.52.84l.53,1.83c.22.77-.07,1.3-.84,1.52l-17.81,5.15c-.77.22-1.3-.07-1.52-.84Z"/>
  </g>
  <g>
    <path class="cls-12" d="m962.62,304.43h7.46c4.81,0,7.24,2.32,7.24,5.59,0,2.57-1.67,4.17-3.94,4.69v.21c2.48.12,4.79,2.07,4.79,5.29,0,3.47-2.61,6.03-7.51,6.03h-8.04c-.83,0-1.28-.45-1.28-1.28v-19.26c0-.83.45-1.28,1.28-1.28Zm6.75,9.13c1.88,0,3.29-1.04,3.29-2.77,0-1.58-1.16-2.63-3.21-2.63h-3.5v5.4h3.42Zm.34,8.91c2.58,0,3.7-1.08,3.7-2.72,0-1.8-1.37-3.08-3.59-3.08h-3.87v5.79h3.76Z"/>
    <path class="cls-12" d="m992.85,309.89h1.98c.83,0,1.28.45,1.28,1.28v13.8c0,.83-.45,1.28-1.28,1.28h-1.8c-.83,0-1.28-.45-1.28-1.28v-1.69h-.17c-.74,1.92-2.5,3.18-4.96,3.18-3.29,0-5.53-2.33-5.54-6.16v-9.14c0-.83.45-1.28,1.28-1.28h1.98c.83,0,1.28.45,1.28,1.28v8.33c.01,1.93,1.12,3.13,2.83,3.13s3.13-1.15,3.12-3.34v-8.12c0-.83.45-1.28,1.28-1.28Z"/>
    <path class="cls-12" d="m1002.99,326.25h-1.98c-.83,0-1.28-.45-1.28-1.28v-13.8c0-.83.45-1.28,1.28-1.28h1.77c.83,0,1.28.45,1.28,1.28v1.61h.19c.74-1.91,2.49-3.1,4.92-3.1,3.41,0,5.64,2.34,5.64,6.16v9.14c0,.83-.45,1.28-1.28,1.28h-1.98c-.83,0-1.28-.45-1.28-1.28v-8.33c.01-2-1.09-3.2-2.91-3.2s-3.09,1.24-3.1,3.34v8.18c0,.83-.45,1.28-1.28,1.28Z"/>
    <path class="cls-12" d="m1019.66,304.43h1.98c.83,0,1.28.45,1.28,1.28v10.38h.25l4.62-5.49c.43-.51.89-.72,1.57-.72h2.19c1.11,0,1.44.72.72,1.57l-4.73,5.52,5.32,7.72c.6.86.23,1.56-.82,1.56h-2.44c-.68,0-1.16-.25-1.54-.82l-3.91-5.77-1.22,1.4v3.92c0,.83-.45,1.28-1.28,1.28h-1.98c-.83,0-1.28-.45-1.28-1.28v-19.26c0-.83.45-1.28,1.28-1.28Z"/>
    <path class="cls-12" d="m1034.49,318.14c0-5.05,3.12-8.47,7.93-8.47,4.32,0,7.69,2.75,7.69,8.31,0,.81-.45,1.25-1.28,1.25h-9.86c0,2.45,1.44,3.95,3.71,3.95,1.1,0,2.01-.34,2.61-1.01.48-.55.86-.86,1.58-.82l1.68.12c.91.06,1.41.53,1.12,1.21-1.01,2.39-3.54,3.89-7.06,3.89-5.04,0-8.12-3.24-8.12-8.42Zm11.35-1.73c-.01-1.95-1.37-3.35-3.34-3.35s-3.43,1.49-3.53,3.35h6.87Z"/>
    <path class="cls-12" d="m1054.36,309.89h1.84c.83,0,1.28.45,1.28,1.28v1.58h.17c.6-2.02,2.1-3.09,3.93-3.09.08,0,.16,0,.25.01.79.03,1.18.55,1.18,1.34v1.46c0,.87-.34,1.27-.95,1.19-.33-.04-.67-.06-.97-.06-2,0-3.47,1.38-3.47,3.4v7.98c0,.83-.45,1.28-1.28,1.28h-1.98c-.83,0-1.28-.45-1.28-1.28v-13.8c0-.83.45-1.28,1.28-1.28Z"/>
  </g>
  <g>
    <path class="cls-10" d="m647.17,814.54c-5.82,0-10.21-4.1-10.21-11.2s4.4-11.21,10.21-11.21,10.21,4.07,10.21,11.21-4.43,11.2-10.21,11.2Zm0-4.08c3.34,0,5.54-2.5,5.54-7.12s-2.19-7.13-5.54-7.13-5.54,2.5-5.54,7.13,2.18,7.12,5.54,7.12Z"/>
    <path class="cls-10" d="m672.48,797.89h1.98c.83,0,1.28.45,1.28,1.28v13.8c0,.83-.45,1.28-1.28,1.28h-1.8c-.83,0-1.28-.45-1.28-1.28v-1.69h-.17c-.74,1.92-2.5,3.19-4.96,3.19-3.29,0-5.53-2.33-5.54-6.16v-9.14c0-.83.45-1.28,1.28-1.28h1.98c.83,0,1.28.45,1.28,1.28v8.33c.01,1.93,1.12,3.13,2.83,3.13s3.13-1.15,3.12-3.34v-8.12c0-.83.45-1.28,1.28-1.28Z"/>
    <path class="cls-10" d="m686.79,801.3h-1.8v7.92c0,1.26.63,1.6,1.53,1.6h.11c.68-.03,1.1.19,1.24.86l.25,1.14c.17.81-.15,1.38-.96,1.52-.35.06-.78.11-1.25.13-3.29.14-5.47-1.45-5.45-4.65v-8.52h-.96c-.83,0-1.28-.45-1.28-1.28v-.85c0-.83.45-1.28,1.28-1.28h.96v-2.64c0-.83.45-1.28,1.28-1.28h1.98c.83,0,1.28.45,1.28,1.28v2.64h1.8c.83,0,1.28.45,1.28,1.28v.85c0,.83-.45,1.28-1.28,1.28Z"/>
    <path class="cls-10" d="m692.3,797.89h1.92c.83,0,1.28.45,1.28,1.28v1.47h.2c.61-1.33,1.92-2.96,4.65-2.96,3.59,0,6.62,2.79,6.62,8.41s-2.91,8.42-6.64,8.42c-2.64,0-4.02-1.52-4.64-2.89h-.14v7.48c0,.83-.45,1.28-1.28,1.28h-1.98c-.83,0-1.28-.45-1.28-1.28v-19.94c0-.83.45-1.28,1.28-1.28Zm6.6,13.01c2.23,0,3.44-1.98,3.44-4.83s-1.19-4.78-3.44-4.78-3.44,1.86-3.44,4.78,1.26,4.83,3.44,4.83Z"/>
    <path class="cls-10" d="m709.33,806.13c0-5.07,3.09-8.46,8.05-8.46s8.05,3.39,8.05,8.46-3.09,8.43-8.05,8.43-8.05-3.4-8.05-8.43Zm8.07,4.92c2.25,0,3.42-2.1,3.42-4.95s-1.17-4.96-3.42-4.96-3.46,2.11-3.46,4.96,1.17,4.95,3.46,4.95Z"/>
    <path class="cls-10" d="m737.41,801.85c-.46-.57-1.24-.96-2.29-.96-1.41,0-2.51.64-2.5,1.62-.01.79.55,1.31,2.08,1.64l2.96.6c3.17.65,4.72,2.07,4.73,4.43-.01,3.23-3.05,5.39-7.29,5.39-3.66,0-6.13-1.37-7.06-3.7-.34-.83.18-1.39,1.07-1.44l1.95-.11c.73-.04,1.08.32,1.51.93.51.69,1.38,1.04,2.55,1.04,1.59,0,2.64-.69,2.66-1.66-.02-.82-.67-1.34-2.1-1.63l-2.83-.56c-3.2-.64-4.74-2.23-4.73-4.68-.01-3.15,2.75-5.09,6.93-5.09,3.47,0,5.74,1.31,6.61,3.51.33.84-.17,1.4-1.05,1.45l-1.68.11c-.72.04-1.05-.3-1.51-.9Z"/>
    <path class="cls-10" d="m752.68,801.3h-1.8v7.92c0,1.26.63,1.6,1.53,1.6h.11c.68-.03,1.1.19,1.24.86l.25,1.14c.17.81-.15,1.38-.96,1.52-.35.06-.78.11-1.25.13-3.29.14-5.47-1.45-5.45-4.65v-8.52h-.96c-.83,0-1.28-.45-1.28-1.28v-.85c0-.83.45-1.28,1.28-1.28h.96v-2.64c0-.83.45-1.28,1.28-1.28h1.98c.83,0,1.28.45,1.28,1.28v2.64h1.8c.83,0,1.28.45,1.28,1.28v.85c0,.83-.45,1.28-1.28,1.28Z"/>
    <path class="cls-10" d="m757,800.52c-.01-1.4,1.15-2.54,2.56-2.54s2.54,1.14,2.56,2.54c-.01,1.42-1.19,2.56-2.56,2.56s-2.57-1.14-2.56-2.56Zm2.56,8.91c1.36,0,2.54,1.14,2.56,2.54-.01,1.42-1.19,2.56-2.56,2.56s-2.57-1.14-2.56-2.56c-.01-1.4,1.15-2.54,2.56-2.54Z"/>
    <path class="cls-10" d="m774.15,792.43h2.06c.83,0,1.28.45,1.28,1.28v16.73h8.07c.83,0,1.28.45,1.28,1.28v1.25c0,.83-.45,1.28-1.28,1.28h-11.41c-.83,0-1.28-.45-1.28-1.28v-19.26c0-.83.45-1.28,1.28-1.28Z"/>
    <path class="cls-10" d="m789.64,793.48c0-1.26,1.11-2.29,2.45-2.29s2.46,1.03,2.46,2.29-1.11,2.3-2.46,2.3-2.45-1.03-2.45-2.3Zm.17,5.69c0-.83.45-1.28,1.28-1.28h1.98c.83,0,1.28.45,1.28,1.28v13.8c0,.83-.45,1.28-1.28,1.28h-1.98c-.83,0-1.28-.45-1.28-1.28v-13.8Z"/>
    <path class="cls-10" d="m806.41,814.25h-2.92c-.75,0-1.21-.33-1.46-1.03l-4.85-13.87c-.31-.88.11-1.46,1.04-1.46h2.12c.76,0,1.21.34,1.43,1.08l3.09,10.63h.17l3.08-10.63c.21-.74.67-1.08,1.43-1.08h2.13c.94,0,1.35.57,1.04,1.46l-4.85,13.87c-.25.7-.71,1.03-1.46,1.03Z"/>
    <path class="cls-10" d="m815.38,793.48c0-1.26,1.11-2.29,2.45-2.29s2.46,1.03,2.46,2.29-1.11,2.3-2.46,2.3-2.45-1.03-2.45-2.3Zm.17,5.69c0-.83.45-1.28,1.28-1.28h1.98c.83,0,1.28.45,1.28,1.28v13.8c0,.83-.45,1.28-1.28,1.28h-1.98c-.83,0-1.28-.45-1.28-1.28v-13.8Z"/>
    <path class="cls-10" d="m826.97,814.25h-1.98c-.83,0-1.28-.45-1.28-1.28v-13.8c0-.83.45-1.28,1.28-1.28h1.77c.83,0,1.28.45,1.28,1.28v1.61h.19c.74-1.91,2.49-3.1,4.92-3.1,3.41,0,5.64,2.34,5.64,6.16v9.14c0,.83-.45,1.28-1.28,1.28h-1.98c-.83,0-1.28-.45-1.28-1.28v-8.33c.01-2-1.09-3.2-2.91-3.2s-3.09,1.24-3.1,3.34v8.18c0,.83-.45,1.28-1.28,1.28Z"/>
    <path class="cls-10" d="m842.75,817.49c-.43-.8.05-1.41.94-1.52l1.73-.23c.71-.1,1.1.2,1.6.74.55.59,1.46.99,2.83.99,1.97,0,3.41-.87,3.41-3.12v-2.99h-.19c-.6,1.35-2.06,2.66-4.67,2.66-3.69,0-6.64-2.54-6.64-7.98s3.04-8.36,6.62-8.36c2.74,0,4.07,1.63,4.68,2.96h.17v-1.47c0-.83.45-1.28,1.28-1.28h1.95c.83,0,1.28.45,1.28,1.28v15.24c0,4.19-3.32,6.32-8,6.32-3.61,0-5.96-1.33-6.99-3.23Zm7.08-6.89c2.18,0,3.44-1.71,3.44-4.59s-1.24-4.73-3.44-4.73-3.44,1.95-3.44,4.73,1.21,4.59,3.44,4.59Z"/>
  </g>
  <g>
    <path class="cls-12" d="m382.62,113.43h2.06c.83,0,1.28.45,1.28,1.28v7.72h9.36v-7.72c0-.83.45-1.28,1.28-1.28h2.04c.83,0,1.28.45,1.28,1.28v19.26c0,.83-.45,1.28-1.28,1.28h-2.04c-.83,0-1.28-.45-1.28-1.28v-7.73h-9.36v7.73c0,.83-.45,1.28-1.28,1.28h-2.06c-.83,0-1.28-.45-1.28-1.28v-19.26c0-.83.45-1.28,1.28-1.28Z"/>
    <path class="cls-12" d="m403.46,114.48c0-1.26,1.11-2.29,2.45-2.29s2.46,1.03,2.46,2.29-1.11,2.3-2.46,2.3-2.45-1.03-2.45-2.3Zm.17,5.69c0-.83.45-1.28,1.28-1.28h1.98c.83,0,1.28.45,1.28,1.28v13.8c0,.83-.45,1.28-1.28,1.28h-1.98c-.83,0-1.28-.45-1.28-1.28v-13.8Z"/>
    <path class="cls-12" d="m420.23,135.25h-2.92c-.75,0-1.21-.33-1.46-1.03l-4.85-13.87c-.31-.88.11-1.46,1.04-1.46h2.12c.76,0,1.21.34,1.43,1.08l3.09,10.63h.17l3.08-10.63c.21-.73.67-1.08,1.43-1.08h2.13c.94,0,1.35.58,1.04,1.46l-4.85,13.87c-.25.7-.71,1.03-1.46,1.03Z"/>
    <path class="cls-12" d="m428.17,127.14c0-5.05,3.12-8.47,7.93-8.47,4.32,0,7.69,2.75,7.69,8.31,0,.81-.45,1.25-1.28,1.25h-9.86c0,2.45,1.44,3.95,3.71,3.95,1.1,0,2.01-.34,2.61-1.01.48-.55.86-.86,1.58-.82l1.68.12c.91.06,1.41.53,1.12,1.21-1.01,2.39-3.54,3.89-7.06,3.89-5.04,0-8.12-3.24-8.12-8.42Zm11.35-1.73c-.01-1.95-1.37-3.35-3.34-3.35s-3.43,1.49-3.53,3.35h6.87Z"/>
    <path class="cls-12" d="m446.85,121.52c-.01-1.4,1.15-2.54,2.56-2.54s2.54,1.14,2.56,2.54c-.01,1.42-1.19,2.56-2.56,2.56s-2.57-1.14-2.56-2.56Zm2.56,8.91c1.36,0,2.54,1.14,2.56,2.53-.01,1.42-1.19,2.56-2.56,2.56s-2.57-1.14-2.56-2.56c-.01-1.4,1.15-2.53,2.56-2.53Z"/>
    <path class="cls-12" d="m464,113.43h7.46c4.81,0,7.24,2.32,7.24,5.59,0,2.57-1.67,4.17-3.94,4.69v.21c2.48.12,4.79,2.07,4.79,5.29,0,3.47-2.61,6.03-7.51,6.03h-8.04c-.83,0-1.28-.45-1.28-1.28v-19.26c0-.83.45-1.28,1.28-1.28Zm6.75,9.13c1.88,0,3.29-1.04,3.29-2.77,0-1.58-1.16-2.63-3.21-2.63h-3.5v5.4h3.42Zm.34,8.91c2.58,0,3.7-1.08,3.7-2.72,0-1.8-1.37-3.08-3.59-3.08h-3.87v5.79h3.76Z"/>
    <path class="cls-12" d="m483.74,118.89h1.84c.83,0,1.28.45,1.28,1.28v1.58h.17c.6-2.02,2.1-3.09,3.93-3.09.08,0,.16,0,.25.01.79.03,1.18.55,1.18,1.34v1.46c0,.87-.34,1.27-.95,1.19-.33-.04-.67-.06-.97-.06-2,0-3.47,1.38-3.47,3.4v7.98c0,.83-.45,1.28-1.28,1.28h-1.98c-.83,0-1.28-.45-1.28-1.28v-13.8c0-.83.45-1.28,1.28-1.28Z"/>
    <path class="cls-12" d="m494.56,114.48c0-1.26,1.11-2.29,2.45-2.29s2.46,1.03,2.46,2.29-1.11,2.3-2.46,2.3-2.45-1.03-2.45-2.3Zm.17,5.69c0-.83.45-1.28,1.28-1.28h1.98c.83,0,1.28.45,1.28,1.28v13.8c0,.83-.45,1.28-1.28,1.28h-1.98c-.83,0-1.28-.45-1.28-1.28v-13.8Z"/>
    <path class="cls-12" d="m502.28,127.09c0-5.62,3.04-8.41,6.62-8.41,2.74,0,4.05,1.63,4.65,2.96h.14v-6.92c0-.83.45-1.28,1.28-1.28h1.97c.83,0,1.28.45,1.28,1.28v19.26c0,.83-.45,1.28-1.28,1.28h-1.92c-.83,0-1.28-.45-1.28-1.28v-1.34h-.19c-.63,1.36-2,2.89-4.64,2.89-3.73,0-6.64-2.95-6.64-8.42Zm8.07,4.81c2.18,0,3.44-1.92,3.44-4.84s-1.24-4.78-3.44-4.78-3.44,1.95-3.44,4.78,1.21,4.84,3.44,4.84Z"/>
    <path class="cls-12" d="m522.33,138.49c-.43-.8.05-1.41.94-1.52l1.73-.23c.71-.1,1.1.2,1.6.73.55.59,1.46.99,2.83.99,1.97,0,3.41-.87,3.41-3.12v-2.99h-.19c-.6,1.35-2.06,2.66-4.67,2.66-3.69,0-6.64-2.53-6.64-7.98s3.04-8.36,6.62-8.36c2.74,0,4.07,1.63,4.68,2.96h.17v-1.47c0-.83.45-1.28,1.28-1.28h1.95c.83,0,1.28.45,1.28,1.28v15.24c0,4.19-3.32,6.32-8,6.32-3.61,0-5.96-1.33-6.99-3.23Zm7.08-6.89c2.18,0,3.44-1.7,3.44-4.59s-1.24-4.73-3.44-4.73-3.44,1.95-3.44,4.73,1.21,4.59,3.44,4.59Z"/>
    <path class="cls-12" d="m540.28,127.14c0-5.05,3.12-8.47,7.93-8.47,4.32,0,7.69,2.75,7.69,8.31,0,.81-.45,1.25-1.28,1.25h-9.86c0,2.45,1.44,3.95,3.71,3.95,1.1,0,2.01-.34,2.61-1.01.48-.55.86-.86,1.58-.82l1.68.12c.91.06,1.41.53,1.12,1.21-1.01,2.39-3.54,3.89-7.06,3.89-5.04,0-8.12-3.24-8.12-8.42Zm11.35-1.73c-.01-1.95-1.37-3.35-3.34-3.35s-3.43,1.49-3.53,3.35h6.87Z"/>
  </g>
  <g>
    <path class="cls-12" d="m161.62,238.43h2.06c.83,0,1.28.45,1.28,1.28v7.72h9.36v-7.72c0-.83.45-1.28,1.28-1.28h2.04c.83,0,1.28.45,1.28,1.28v19.26c0,.83-.45,1.28-1.28,1.28h-2.04c-.83,0-1.28-.45-1.28-1.28v-7.73h-9.36v7.73c0,.83-.45,1.28-1.28,1.28h-2.06c-.83,0-1.28-.45-1.28-1.28v-19.26c0-.83.45-1.28,1.28-1.28Z"/>
    <path class="cls-12" d="m182.46,239.48c0-1.26,1.11-2.29,2.45-2.29s2.46,1.03,2.46,2.29-1.11,2.3-2.46,2.3-2.45-1.03-2.45-2.3Zm.17,5.69c0-.83.45-1.28,1.28-1.28h1.98c.83,0,1.28.45,1.28,1.28v13.8c0,.83-.45,1.28-1.28,1.28h-1.98c-.83,0-1.28-.45-1.28-1.28v-13.8Z"/>
    <path class="cls-12" d="m199.23,260.25h-2.92c-.75,0-1.21-.33-1.46-1.03l-4.85-13.87c-.31-.88.11-1.46,1.04-1.46h2.12c.76,0,1.21.34,1.43,1.08l3.09,10.63h.17l3.08-10.63c.21-.73.67-1.08,1.43-1.08h2.13c.94,0,1.35.58,1.04,1.46l-4.85,13.87c-.25.7-.71,1.03-1.46,1.03Z"/>
    <path class="cls-12" d="m207.17,252.14c0-5.05,3.12-8.47,7.93-8.47,4.32,0,7.69,2.75,7.69,8.31,0,.81-.45,1.25-1.28,1.25h-9.86c0,2.45,1.44,3.95,3.71,3.95,1.1,0,2.01-.34,2.61-1.01.48-.55.86-.86,1.58-.82l1.68.12c.91.06,1.41.53,1.12,1.21-1.01,2.39-3.54,3.89-7.06,3.89-5.04,0-8.12-3.24-8.12-8.42Zm11.35-1.73c-.01-1.95-1.37-3.35-3.34-3.35s-3.43,1.49-3.53,3.35h6.87Z"/>
    <path class="cls-12" d="m225.85,246.52c-.01-1.4,1.15-2.54,2.56-2.54s2.54,1.14,2.56,2.54c-.01,1.42-1.19,2.56-2.56,2.56s-2.57-1.14-2.56-2.56Zm2.56,8.91c1.36,0,2.54,1.14,2.56,2.53-.01,1.42-1.19,2.56-2.56,2.56s-2.57-1.14-2.56-2.56c-.01-1.4,1.15-2.53,2.56-2.53Z"/>
    <path class="cls-12" d="m256.02,244.97c-.68-1.74-2.3-2.76-4.41-2.76-3.38,0-5.59,2.59-5.59,7.13s2.25,7.13,5.56,7.13c2.06,0,3.67-.94,4.4-2.6.31-.71.69-1.08,1.45-1.08h2.12c.9.02,1.38.55,1.14,1.41-1.03,3.45-4.24,6.35-9.18,6.35-5.84,0-10.16-4.09-10.16-11.2s4.4-11.2,10.16-11.2c4.56,0,8.12,2.36,9.2,6.54.23.87-.27,1.4-1.15,1.4h-2.11c-.76,0-1.15-.37-1.43-1.1Z"/>
    <path class="cls-12" d="m263.44,255.68c0-3.65,2.91-4.74,6.15-5.04,2.84-.28,3.96-.42,3.96-1.47v-.06c0-1.34-.88-2.12-2.43-2.12-1.12,0-1.92.37-2.42.96-.47.57-.83.91-1.55.84l-1.67-.14c-.91-.07-1.38-.67-.99-1.49,1.04-2.17,3.38-3.48,6.66-3.48,3.64,0,6.94,1.64,6.94,5.54v9.76c0,.83-.45,1.28-1.28,1.28h-1.75c-.83,0-1.28-.4-1.28-1.14v-1.13h-.13c-.8,1.52-2.36,2.58-4.78,2.58-3.12,0-5.43-1.64-5.43-4.88Zm6.73,1.75c1.99,0,3.41-1.31,3.41-3.02v-1.74c-.54.36-2.16.6-3.15.74-1.6.22-2.65.85-2.65,2.13s1,1.9,2.4,1.9Z"/>
    <path class="cls-12" d="m282,263.49c-.43-.8.05-1.41.94-1.52l1.73-.23c.71-.1,1.1.2,1.6.73.55.59,1.46.99,2.83.99,1.97,0,3.41-.87,3.41-3.12v-2.99h-.19c-.6,1.35-2.06,2.66-4.67,2.66-3.69,0-6.64-2.53-6.64-7.98s3.04-8.36,6.62-8.36c2.74,0,4.07,1.63,4.68,2.96h.17v-1.47c0-.83.45-1.28,1.28-1.28h1.95c.83,0,1.28.45,1.28,1.28v15.24c0,4.19-3.32,6.32-8,6.32-3.61,0-5.96-1.33-6.99-3.23Zm7.08-6.89c2.18,0,3.44-1.7,3.44-4.59s-1.24-4.73-3.44-4.73-3.44,1.95-3.44,4.73,1.21,4.59,3.44,4.59Z"/>
    <path class="cls-12" d="m299.95,252.14c0-5.05,3.12-8.47,7.93-8.47,4.32,0,7.69,2.75,7.69,8.31,0,.81-.45,1.25-1.28,1.25h-9.86c0,2.45,1.44,3.95,3.71,3.95,1.1,0,2.01-.34,2.61-1.01.48-.55.86-.86,1.58-.82l1.68.12c.91.06,1.41.53,1.12,1.21-1.01,2.39-3.54,3.89-7.06,3.89-5.04,0-8.12-3.24-8.12-8.42Zm11.35-1.73c-.01-1.95-1.37-3.35-3.34-3.35s-3.43,1.49-3.53,3.35h6.87Z"/>
  </g>
  <g>
    <line class="cls-12" x1="721.12" y1="783.16" x2="639.54" y2="726.39"/>
    <g>
      <line class="cls-9" x1="721.12" y1="783.16" x2="654.27" y2="736.64"/>
      <polygon class="cls-12" points="664.38 728.49 639.54 726.39 650.14 748.95 664.38 728.49"/>
    </g>
  </g>
  <g>
    <line class="cls-12" x1="314.36" y1="278.11" x2="401.36" y2="431.11"/>
    <g>
      <line class="cls-9" x1="314.36" y1="278.11" x2="392.49" y2="415.52"/>
      <polygon class="cls-12" points="379.85 418.51 401.36 431.11 401.52 406.18 379.85 418.51"/>
    </g>
  </g>
  <g>
    <line class="cls-12" x1="570.36" y1="131.11" x2="750.36" y2="106.11"/>
    <g>
      <line class="cls-9" x1="570.36" y1="131.11" x2="732.59" y2="108.58"/>
      <polygon class="cls-12" points="730.69 121.43 750.36 106.11 727.26 96.73 730.69 121.43"/>
    </g>
  </g>
  <g>
    <line class="cls-12" x1="1008.36" y1="298.11" x2="933.36" y2="241.11"/>
    <g>
      <line class="cls-9" x1="1008.36" y1="298.11" x2="947.64" y2="251.97"/>
      <polygon class="cls-12" points="958.09 244.25 933.36 241.11 943 264.1 958.09 244.25"/>
    </g>
  </g>
</svg>