<?xml version="1.0" encoding="UTF-8"?>
<svg id="Layer_2" data-name="Layer 2" xmlns="http://www.w3.org/2000/svg" viewBox="0 0 3102.42 870.18">
  <defs>
    <style>
      .cls-1 {
        fill: #fc3;
      }
    </style>
  </defs>
  <g id="Layer_3" data-name="Layer 3">
    <g>
      <g>
        <path class="cls-1" d="m901.37,675.35h41.66c31.48,0,46.89,18.91,46.89,43.85s-15.54,43.98-46.95,43.98h-27.78v41c0,4.3-2.31,6.61-6.61,6.61h-7.21c-4.3,0-6.61-2.31-6.61-6.61v-122.21c0-4.3,2.31-6.61,6.61-6.61Zm39.75,70.5c19.97,0,28.24-11.31,28.24-26.65s-8.27-26.32-28.5-26.32h-25.66v52.97h25.92Z"/>
        <path class="cls-1" d="m1029.08,803.18l44.11-122.54c1.32-3.57,3.7-5.29,7.54-5.29h12.37c3.83,0,6.22,1.72,7.54,5.29l44.11,122.54c1.65,4.56-.46,7.61-5.36,7.61h-7.94c-3.83,0-6.28-1.65-7.54-5.36l-10.51-30.49h-52.91l-10.58,30.49c-1.26,3.64-3.7,5.36-7.54,5.36h-7.94c-4.89,0-7.01-3.04-5.36-7.61Zm78.37-45.43l-19.97-57.8h-1.06l-19.97,57.8h41Z"/>
        <path class="cls-1" d="m1188.01,675.35h91.59c4.3,0,6.61,2.31,6.61,6.61v4.36c0,4.3-2.31,6.61-6.61,6.61h-35.64v111.23c0,4.3-2.31,6.61-6.61,6.61h-7.14c-4.3,0-6.61-2.31-6.61-6.61v-111.23h-35.58c-4.3,0-6.61-2.31-6.61-6.61v-4.36c0-4.3,2.31-6.61,6.61-6.61Z"/>
        <path class="cls-1" d="m1360.36,810.79h-7.21c-4.3,0-6.61-2.31-6.61-6.61v-122.21c0-4.3,2.31-6.61,6.61-6.61h7.21c4.3,0,6.61,2.31,6.61,6.61v122.21c0,4.3-2.31,6.61-6.61,6.61Z"/>
        <path class="cls-1" d="m1440.59,675.35h71.69c4.3,0,6.61,2.31,6.61,6.61v4.36c0,4.3-2.32,6.61-6.61,6.61h-57.87v41.27h53.43c4.3,0,6.61,2.31,6.61,6.61v4.3c0,4.3-2.31,6.61-6.61,6.61h-53.43v41.46h58.66c4.3,0,6.61,2.31,6.61,6.61v4.36c0,4.3-2.31,6.61-6.61,6.61h-72.48c-4.3,0-6.61-2.31-6.61-6.61v-122.21c0-4.3,2.31-6.61,6.61-6.61Z"/>
        <path class="cls-1" d="m1686.22,810.79h-7.08c-3.5,0-6.02-1.26-8-4.17l-65.93-95.16h-1.26v92.72c0,4.3-2.31,6.61-6.61,6.61h-7.21c-4.3,0-6.61-2.31-6.61-6.61v-122.21c0-4.3,2.31-6.61,6.61-6.61h7.21c3.57,0,6.02,1.26,8,4.17l66,95.3h1.26v-92.85c0-4.3,2.31-6.61,6.61-6.61h7.01c4.3,0,6.61,2.31,6.61,6.61v122.21c0,4.3-2.31,6.61-6.61,6.61Z"/>
        <path class="cls-1" d="m1759.77,675.35h91.59c4.3,0,6.61,2.31,6.61,6.61v4.36c0,4.3-2.31,6.61-6.61,6.61h-35.64v111.23c0,4.3-2.31,6.61-6.61,6.61h-7.14c-4.3,0-6.61-2.31-6.61-6.61v-111.23h-35.58c-4.3,0-6.61-2.31-6.61-6.61v-4.36c0-4.3,2.31-6.61,6.61-6.61Z"/>
        <path class="cls-1" d="m1957.65,762.11h-46.82c-4.3,0-6.61-2.31-6.61-6.61v-3.9c0-4.3,2.31-6.61,6.61-6.61h46.82c4.3,0,6.61,2.31,6.61,6.61v3.9c0,4.3-2.31,6.61-6.61,6.61Z"/>
        <path class="cls-1" d="m2025.11,743.13c.07-44.11,18.58-69.64,49.67-69.64s49.6,25.59,49.6,69.64-18.32,69.9-49.6,69.9c-31.35-.07-49.67-25.59-49.67-69.9Zm24.8,31.68l37.36-80.28c-3.64-2.38-7.87-3.57-12.5-3.57-18.25,0-29.3,18.58-29.36,52.31,0,12.76,1.59,23.34,4.5,31.54Zm24.87,20.7c18.25,0,29.3-18.38,29.3-52.24,0-12.7-1.59-23.28-4.5-31.48l-37.36,80.15c3.64,2.38,7.87,3.57,12.56,3.57Z"/>
      </g>
      <g>
        <path class="cls-1" d="m1020.84,633.88c-71.78,0-126.08-50.62-126.08-138.31s54.3-138.31,126.08-138.31,126.08,50.22,126.08,138.31-54.69,138.31-126.08,138.31Zm0-50.35c41.28,0,68.36-30.9,68.36-87.95s-27.08-87.95-68.36-87.95-68.36,30.9-68.36,87.95,26.95,87.95,68.36,87.95Z"/>
        <path class="cls-1" d="m1398.42,630.2h-21.3c-8.41,0-14.2-2.89-19.06-9.99l-110.17-159.47h-1.97v153.69c0,10.25-5.52,15.78-15.78,15.78h-25.37c-10.25,0-15.78-5.52-15.78-15.78v-237.7c0-10.25,5.52-15.78,15.78-15.78h21.96c8.41,0,14.33,3.02,19.06,9.99l109.38,159.34h2.37v-153.56c0-10.25,5.52-15.78,15.78-15.78h25.11c10.25,0,15.78,5.52,15.78,15.78v237.7c0,10.25-5.52,15.78-15.78,15.78Z"/>
        <path class="cls-1" d="m1616.44,360.95h149.88c10.25,0,15.78,5.52,15.78,15.78v15.38c0,10.25-5.52,15.78-15.78,15.78h-108.73v64.16h99.39c10.25,0,15.78,5.52,15.78,15.78v15.38c0,10.25-5.52,15.78-15.78,15.78h-99.39v64.29h109.25c10.25,0,15.78,5.52,15.78,15.78v15.38c0,10.25-5.52,15.78-15.78,15.78h-150.4c-10.25,0-15.78-5.52-15.78-15.78v-237.7c0-10.25,5.52-15.78,15.78-15.78Z"/>
        <path class="cls-1" d="m1819.04,612.19l82.3-238.49c3.02-8.81,8.81-12.75,18.01-12.75h46.28c9.2,0,14.99,3.94,18.01,12.75l82.17,238.49c3.81,11.04-1.31,18.01-12.88,18.01h-28.27c-9.2,0-14.99-4.21-17.88-13.02l-15.78-48.38h-97.16l-15.78,48.38c-2.89,8.81-8.68,13.02-17.88,13.02h-28.27c-11.57,0-16.7-7.1-12.88-18.01Zm157.63-87.82l-33.13-101.89h-2.1l-33.13,101.89h68.36Z"/>
        <path class="cls-1" d="m2120.1,360.95h90.45c61.13,0,96.5,34.45,96.5,87.95,0,36.81-16.96,63.5-47.59,76.65l46.93,85.85c5.92,10.91,1.18,18.8-11.17,18.8h-28.66c-8.68,0-14.72-3.42-18.8-11.17l-44.96-84.27h-41.54v79.67c0,10.25-5.52,15.78-15.78,15.78h-25.37c-10.25,0-15.78-5.52-15.78-15.78v-237.7c0-10.25,5.52-15.78,15.78-15.78Zm79.8,128.05c32.6,0,48.51-13.41,48.51-40.1s-15.91-41.41-48.78-41.41h-38.39v81.51h38.65Z"/>
        <path class="cls-1" d="m2352.8,360.95h189.58c10.25,0,15.78,5.52,15.78,15.78v15.38c0,10.25-5.52,15.78-15.78,15.78h-66.66v206.54c0,10.25-5.52,15.78-15.78,15.78h-24.72c-10.25,0-15.78-5.52-15.78-15.78v-206.54h-66.65c-10.25,0-15.78-5.52-15.78-15.78v-15.38c0-10.25,5.52-15.78,15.78-15.78Z"/>
        <path class="cls-1" d="m2610.48,360.95h25.37c10.25,0,15.78,5.52,15.78,15.78v95.32h115.56v-95.32c0-10.25,5.52-15.78,15.78-15.78h25.24c10.25,0,15.78,5.52,15.78,15.78v237.7c0,10.25-5.52,15.78-15.78,15.78h-25.24c-10.25,0-15.78-5.52-15.78-15.78v-95.45h-115.56v95.45c0,10.25-5.52,15.78-15.78,15.78h-25.37c-10.25,0-15.78-5.52-15.78-15.78v-237.7c0-10.25,5.52-15.78,15.78-15.78Z"/>
      </g>
      <g>
        <path class="cls-1" d="m910.44,44.64h25.37c10.25,0,15.78,5.52,15.78,15.78v206.54h99.65c10.25,0,15.78,5.52,15.78,15.78v15.38c0,10.25-5.52,15.78-15.78,15.78h-140.8c-10.25,0-15.78-5.52-15.78-15.78V60.42c0-10.25,5.52-15.78,15.78-15.78Z"/>
        <path class="cls-1" d="m1103.04,295.88l82.3-238.49c3.02-8.81,8.81-12.75,18.01-12.75h46.28c9.2,0,14.99,3.94,18.01,12.75l82.17,238.49c3.81,11.04-1.31,18.01-12.88,18.01h-28.27c-9.2,0-14.99-4.21-17.88-13.02l-15.78-48.38h-97.16l-15.78,48.38c-2.89,8.81-8.68,13.02-17.88,13.02h-28.27c-11.57,0-16.7-7.1-12.88-18.01Zm157.63-87.82l-33.13-101.89h-2.1l-33.13,101.89h68.36Z"/>
        <path class="cls-1" d="m1524.4,108.93c-6.71-13.02-21.43-20.38-42.33-20.38-27.87,0-43.25,12.75-43.25,30.11-.39,19.33,19.19,28,42.6,33.39l24.19,5.78c46.8,10.52,80.59,34.31,80.72,79.14-.13,49.3-38.78,80.72-104.52,80.72-58.9,0-98.47-24.45-106.88-71.78-1.84-10.52,4.47-16.57,14.99-16.57h24.32c9.47,0,13.67,4.73,17.22,13.8,7.1,17.75,25.64,26.82,49.7,26.82,28.92,0,47.59-13.41,47.72-33.13-.13-18.14-16.43-26.56-45.75-33.66l-29.32-7.36c-45.49-10.91-73.49-33.66-73.36-73.36-.26-48.91,42.99-81.51,102.02-81.51,52.72,0,89.66,25.64,98.21,64.55,2.37,10.52-4.08,16.57-14.72,16.57h-24.06c-9.33,0-13.28-4.6-17.49-13.15Z"/>
        <path class="cls-1" d="m1629.97,44.64h189.58c10.25,0,15.78,5.52,15.78,15.78v15.38c0,10.25-5.52,15.78-15.78,15.78h-66.66v206.54c0,10.25-5.52,15.78-15.78,15.78h-24.72c-10.25,0-15.78-5.52-15.78-15.78V91.58h-66.66c-10.25,0-15.78-5.52-15.78-15.78v-15.38c0-10.25,5.52-15.78,15.78-15.78Z"/>
        <path class="cls-1" d="m2167.15,313.89h-21.3c-8.41,0-14.2-2.89-19.06-9.99l-110.17-159.47h-1.97v153.69c0,10.25-5.52,15.78-15.78,15.78h-25.37c-10.25,0-15.78-5.52-15.78-15.78V60.42c0-10.25,5.52-15.78,15.78-15.78h21.96c8.41,0,14.33,3.02,19.06,9.99l109.38,159.34h2.37V60.42c0-10.25,5.52-15.78,15.78-15.78h25.11c10.25,0,15.78,5.52,15.78,15.78v237.7c0,10.25-5.52,15.78-15.78,15.78Z"/>
        <path class="cls-1" d="m2271.01,313.89h-25.37c-10.25,0-15.78-5.52-15.78-15.78V60.42c0-10.25,5.52-15.78,15.78-15.78h25.37c10.25,0,15.78,5.52,15.78,15.78v237.7c0,10.25-5.52,15.78-15.78,15.78Z"/>
        <path class="cls-1" d="m2507.26,119.32c-9.47-17.75-27.21-28-51.4-28-41.15,0-69.15,31.68-69.15,87.69s26.95,88.22,69.68,88.22c37.86,0,60.61-21.17,61.4-54.56h-42.07c-10.25,0-15.78-5.52-15.78-15.78v-11.31c0-10.25,5.52-15.78,15.78-15.78h81.12c10.25,0,15.78,5.52,15.78,15.78v18.14c0,70.86-48.51,113.85-116.48,113.85-75.86,0-127.13-52.85-127.13-138.04s54.82-138.57,125.95-138.57c54.03,0,97.03,29.45,111.22,73.36,3.42,10.65-2.89,17.35-13.94,17.35h-26.69c-9.07,0-13.94-4.21-18.27-12.36Z"/>
        <path class="cls-1" d="m2631.1,44.64h25.37c10.25,0,15.78,5.52,15.78,15.78v95.32h115.56V60.42c0-10.25,5.52-15.78,15.78-15.78h25.24c10.25,0,15.78,5.52,15.78,15.78v237.7c0,10.25-5.52,15.78-15.78,15.78h-25.24c-10.25,0-15.78-5.52-15.78-15.78v-95.45h-115.56v95.45c0,10.25-5.52,15.78-15.78,15.78h-25.37c-10.25,0-15.78-5.52-15.78-15.78V60.42c0-10.25,5.52-15.78,15.78-15.78Z"/>
        <path class="cls-1" d="m2897.06,44.64h189.58c10.25,0,15.78,5.52,15.78,15.78v15.38c0,10.25-5.52,15.78-15.78,15.78h-66.66v206.54c0,10.25-5.52,15.78-15.78,15.78h-24.72c-10.25,0-15.78-5.52-15.78-15.78V91.58h-66.65c-10.25,0-15.78-5.52-15.78-15.78v-15.38c0-10.25,5.52-15.78,15.78-15.78Z"/>
      </g>
      <g id="Tiny">
        <path class="cls-1" d="m583.79,26.06C536.23,8.77,486.21,0,435.12,0c-120.64,0-236.93,50.75-319.03,139.24C32.85,228.96-7.92,345.95,1.28,468.67c15.98,213.11,181.99,381.27,394.75,399.83,144.75,12.63,285.66-46.88,376.94-159.18,4.93-6.07,3.16-12.86-.78-16.9-3.99-4.09-10.81-6.05-17.07-1.21-48.52,37.47-106.12,61.97-166.58,70.84-4.15.61-7.17,4.08-7.17,8.24v9.84c0,37.71-30.2,68.83-67.31,69.37-18.42.3-35.79-6.72-48.93-19.67-13.14-12.96-20.38-30.23-20.38-48.63v-20.66c0-3.71-2.5-7.01-6.08-8.02-54.58-15.35-105.49-44.01-147.21-82.89-1.99-1.86-4.55-2.96-7.21-3.12-3.19-.18-7.54-.51-10.1-1.02l-149.27-29.51c-36.94-7.31-61.07-43.32-53.78-80.25,7.31-36.95,43.32-61.08,80.26-53.79l27.58,5.45c2.83.56,5.7-.36,7.67-2.45,1.98-2.09,2.73-5.01,2-7.8-13.64-52.77-15.08-107.46-4.28-162.56,13.69-69.83,47.77-133.27,98.54-183.45,50.75-50.16,114.58-83.52,184.58-96.47,36.95-6.84,74.11-8.16,110.45-3.93,7.79.91,12.59-4.26,13.9-9.78,1.3-5.49-.67-12.22-8.01-14.89Z"/>
        <circle class="cls-1" cx="592.9" cy="206.17" r="95.21" transform="translate(-25.37 97.63) rotate(-9.22)"/>
        <path class="cls-1" d="m719.59,405.8c-8.62-25.83-36.64-39.84-62.46-31.22l-60.65,20.21c-3.17,1.06-6.55.81-9.53-.7-2.98-1.51-5.19-4.09-6.22-7.26l-20.71-63.96c-.54-1.64-1.16-3.25-1.83-4.77-.27-.64-.56-1.24-.86-1.84-.35-.71-.74-1.47-1.16-2.2-.79-1.42-1.68-2.85-2.67-4.26-.47-.69-.97-1.35-1.47-2.01-.52-.66-1.04-1.31-1.58-1.94-.75-.89-1.54-1.74-2.42-2.6-1.03-1.03-1.83-1.78-2.62-2.44-.74-.65-1.5-1.28-2.44-1.99-.5-.38-1.03-.76-1.56-1.15-.86-.62-1.76-1.21-2.76-1.8l-.24-.15c-.5-.29-1.01-.6-1.53-.88l-.13-.07s-.06-.04-.09-.06l-.24-.11-103.73-57.07c-18.23-10.03-40.94-7.5-56.51,6.3l-121.51,107.62c-9.87,8.74-15.75,20.81-16.54,33.97s3.58,25.85,12.32,35.72c18.05,20.38,49.31,22.28,69.69,4.24l87.16-77.21c4.97-4.4,12.21-5.21,18.02-2.01l7.95,4.38c2.66,1.46,4.54,3.89,5.3,6.83.76,2.94.29,5.97-1.32,8.54l-75.27,119.77-.37.25-80.91,56.87c-2.82,1.98-6.37,2.73-9.75,2.07l-123.25-24.37c-26.7-5.28-52.72,12.16-58,38.87-5.27,26.7,12.17,52.72,38.87,58l149.27,29.51c3.13.62,6.35.93,9.57.93,10.22,0,20.04-3.11,28.4-8.99l72.4-50.91c2.62-1.84,5.65-2.76,8.67-2.76,3.23,0,6.45,1.04,9.16,3.12l52.52,40.23c3.22,2.47,5.15,6.37,5.15,10.43v141.3c0,13.55,5.54,26.75,15.21,36.23,9.51,9.33,21.95,14.36,35.13,14.07,26.69-.51,48.4-22.66,48.4-49.36v-173.11c0-15.26-7.24-29.91-19.35-39.19l-69.69-53.37c-5.21-3.99-6.51-11.2-3.01-16.76l21.4-34.04c1.26-2.01,3.51-3.07,5.86-2.78,2.35.29,4.27,1.88,5,4.13l3.39,10.46c4.03,12.46,13.04,22.97,24.7,28.85,6.89,3.48,14.58,5.31,22.26,5.31,5.31,0,10.56-.85,15.62-2.53l119.75-39.94c25.83-8.6,39.84-36.61,31.24-62.44Z"/>
      </g>
    </g>
  </g>
</svg>